<?xml version="1.0" encoding="UTF-8"?>
<svg width="296px" height="129px" viewBox="0 0 296 129" version="1.1" xmlns="http://www.w3.org/2000/svg" xmlns:xlink="http://www.w3.org/1999/xlink">
    <!-- Generator: Sketch 49.3 (51167) - http://www.bohemiancoding.com/sketch -->
    <title>Dance Mobile</title>
    <desc>Created with Sketch.</desc>
    <defs></defs>
    <g id="Dance-Mobile" stroke="none" stroke-width="1" fill="none" fill-rule="evenodd">
        <rect id="Rectangle-11" x="0" y="0" width="296" height="129"></rect>
        <path d="M11.1953125,29.0917969 C11.1953125,28.0371041 11.3945293,27.1699253 11.7929688,26.4902344 L17.6289062,26.8945312 C17.2187479,27.7265667 17.0136719,28.4472626 17.0136719,29.0566406 C17.0136719,30.0996146 17.3330046,30.9052706 17.9716797,31.4736328 C18.6103548,32.041995 19.457026,32.3261719 20.5117188,32.3261719 C21.5078175,32.3261719 22.2958955,32.050784 22.8759766,31.5 C23.4560576,30.949216 23.7460938,30.1582083 23.7460938,29.1269531 C23.7460938,28.7871077 23.6904302,28.4677749 23.5791016,28.1689453 C23.4677729,27.8701157 23.3388679,27.6064465 23.1923828,27.3779297 C23.0458977,27.1494129 22.820314,26.9179699 22.515625,26.6835938 C22.210936,26.4492176 21.9414074,26.2558601 21.7070312,26.1035156 C21.4726551,25.9511711 21.1269554,25.7695323 20.6699219,25.5585937 C20.2128883,25.3476552 19.8525404,25.1894537 19.5888672,25.0839844 C19.325194,24.9785151 18.9209012,24.8173839 18.3759766,24.6005859 C17.831052,24.383788 17.4296888,24.2226568 17.171875,24.1171875 C13.4921691,22.6288988 11.6523438,20.3144688 11.6523438,17.1738281 C11.6523438,15.1347554 12.4111252,13.4560613 13.9287109,12.1376953 C15.4462967,10.8193293 17.5937361,10.1601562 20.3710938,10.1601562 C21.7304755,10.1601562 22.9550727,10.3447247 24.0449219,10.7138672 C25.1347711,11.0830097 26.0136685,11.5722626 26.6816406,12.1816406 C27.3496127,12.7910187 27.8564436,13.4706994 28.2021484,14.2207031 C28.5478533,14.9707069 28.7207031,15.749996 28.7207031,16.5585938 C28.7207031,17.5312549 28.4804712,18.4335896 28,19.265625 L22.4277344,18.4746094 C22.7324234,17.9121066 22.8847656,17.2851597 22.8847656,16.59375 C22.8847656,15.9023403 22.6738302,15.3750018 22.2519531,15.0117188 C21.830076,14.6484357 21.2148478,14.4667969 20.40625,14.4667969 C19.6914027,14.4667969 19.0732448,14.6777323 18.5517578,15.0996094 C18.0302708,15.5214865 17.7695312,16.1308554 17.7695312,16.9277344 C17.7695312,17.2207046 17.8193354,17.5019518 17.9189453,17.7714844 C18.0185552,18.041017 18.1416008,18.2753896 18.2880859,18.4746094 C18.434571,18.6738291 18.6367175,18.8759755 18.8945312,19.0810547 C19.152345,19.2861338 19.4042956,19.4589837 19.6503906,19.5996094 C19.8964856,19.7402351 20.2070294,19.895507 20.5820312,20.0654297 C20.9570331,20.2353524 21.2880845,20.3789057 21.5751953,20.4960938 C21.8623061,20.6132818 22.2226541,20.7597647 22.65625,20.9355469 C23.0898459,21.111329 23.4531235,21.2636712 23.7460938,21.3925781 C24.4843787,21.708986 25.1113255,22.0048814 25.6269531,22.2802734 C26.1425807,22.5556654 26.6669895,22.9072244 27.2001953,23.3349609 C27.7334011,23.7626975 28.1611312,24.2167945 28.4833984,24.6972656 C28.8056657,25.1777368 29.0693349,25.7665981 29.2744141,26.4638672 C29.4794932,27.1611363 29.5820312,27.9374957 29.5820312,28.7929687 C29.5820312,30.0468813 29.3388696,31.180659 28.8525391,32.1943359 C28.3662085,33.2080129 27.7041058,34.0341765 26.8662109,34.6728516 C26.0283161,35.3115266 25.0673882,35.8007796 23.9833984,36.140625 C22.8994086,36.4804704 21.7421937,36.6503906 20.5117188,36.6503906 C17.6757671,36.6503906 15.4140709,35.9912175 13.7265625,34.6728516 C12.0390541,33.3544856 11.1953125,31.4941526 11.1953125,29.0917969 Z M30.8458915,18.140625 L36.3478446,18.140625 L39.2306571,29.7773438 L42.6056571,18.140625 L47.0001884,18.140625 L50.3927665,29.7773438 L53.275579,18.140625 L58.7775321,18.140625 L53.2052665,36 L47.8615165,36 L44.8029227,24.8730469 L41.744329,36 L36.4181571,36 L30.8458915,18.140625 Z M59.6195173,27.0703125 C59.6195173,24.2109232 60.4632589,21.8994229 62.1507673,20.1357422 C63.8382758,18.3720615 65.953489,17.4902344 68.4964705,17.4902344 C69.8792899,17.4902344 71.1185353,17.750974 72.2142439,18.2724609 C73.3099525,18.7939479 74.1976389,19.4970659 74.8773298,20.3818359 C75.5570207,21.266606 76.0755702,22.2714787 76.4329939,23.3964844 C76.7904176,24.52149 76.9691267,25.7109312 76.9691267,26.9648438 L76.9691267,28.0722656 L65.2269392,28.0722656 C65.3089709,31.2480628 66.4749748,32.8359375 68.7249861,32.8359375 C69.4984274,32.8359375 70.110726,32.6308614 70.5619001,32.2207031 C71.0130743,31.8105448 71.238658,31.2832063 71.238658,30.6386719 C71.238658,30.322264 71.2035021,30.0234389 71.1331892,29.7421875 L76.5296736,29.1621094 C76.6468617,29.6074241 76.7054548,30.0644508 76.7054548,30.5332031 C76.7054548,31.3183633 76.5355347,32.0683558 76.1956892,32.7832031 C75.8558438,33.4980504 75.3578019,34.1484346 74.7015486,34.734375 C74.0452953,35.3203154 73.1839758,35.7861311 72.1175642,36.1318359 C71.0511526,36.4775408 69.8441334,36.6503906 68.4964705,36.6503906 C65.8948949,36.6503906 63.7650334,35.7744228 62.106822,34.0224609 C60.4486106,32.2704991 59.6195173,29.9531394 59.6195173,27.0703125 Z M65.4378767,24.6269531 L71.4495955,24.6269531 C71.414439,23.654292 71.1214732,22.857425 70.5706892,22.2363281 C70.0199052,21.6152313 69.3285059,21.3046875 68.4964705,21.3046875 C67.6761538,21.3046875 66.9935435,21.6035126 66.4486189,22.2011719 C65.9036943,22.7988311 65.5667836,23.6074168 65.4378767,24.6269531 Z M79.3931432,31.5351562 C79.3931432,29.4843647 80.2749703,27.8818417 82.038651,26.7275391 C83.8023317,25.5732364 86.5649994,24.9785158 90.3267369,24.9433594 C90.3267369,22.517566 89.5122919,21.3046875 87.8833776,21.3046875 C87.180249,21.3046875 86.5913877,21.5244119 86.116776,21.9638672 C85.6421642,22.4033225 85.4048619,23.0273397 85.4048619,23.8359375 C85.4048619,24.1054701 85.4282992,24.3339834 85.4751744,24.5214844 L80.4302526,25.3125 C80.2661892,24.6796843 80.1841588,24.0878934 80.1841588,23.5371094 C80.1841588,21.8847574 80.9341513,20.4638731 82.4341588,19.2744141 C83.9341663,18.084955 85.7857103,17.4902344 87.9888463,17.4902344 C90.5435466,17.4902344 92.5093472,18.1201109 93.8863072,19.3798828 C95.2632672,20.6396547 95.9517369,22.5175656 95.9517369,25.0136719 L95.9517369,31.5 C95.9517369,32.4609423 96.3443111,32.9414062 97.1294713,32.9414062 C97.7154117,32.9414062 98.2837654,32.7363302 98.8345494,32.3261719 L98.8345494,35.8242188 C98.2368902,36.1289078 97.6597475,36.3427728 97.1031041,36.4658203 C96.5464607,36.5888678 95.8638503,36.6503906 95.0552526,36.6503906 C93.9419657,36.6503906 93.0103344,36.407229 92.2603307,35.9208984 C91.5103269,35.4345679 90.9888478,34.7636762 90.6958776,33.9082031 C89.992749,34.833989 89.2076006,35.5224587 88.3404088,35.9736328 C87.473217,36.4248069 86.4068214,36.6503906 85.1411901,36.6503906 C83.3364935,36.6503906 81.9273279,36.1787157 80.913651,35.2353516 C79.899974,34.2919875 79.3931432,33.0586014 79.3931432,31.5351562 Z M85.2115026,30.9902344 C85.2115026,31.564456 85.3784931,32.0156234 85.7124791,32.34375 C86.0464652,32.6718766 86.4712656,32.8359375 86.9868932,32.8359375 C88.0064295,32.8359375 88.8179448,32.3935591 89.4214635,31.5087891 C90.0249821,30.624019 90.3267369,29.5898497 90.3267369,28.40625 L90.3267369,27.6152344 C88.4282899,27.8496105 87.1011548,28.256833 86.3452916,28.8369141 C85.5894285,29.4169951 85.2115026,30.1347613 85.2115026,30.9902344 Z M98.5339565,21.9550781 L98.5339565,18.140625 L101.522238,18.140625 L101.522238,12.6035156 L106.84841,10.7929688 L106.84841,18.140625 L110.627707,18.140625 L110.627707,21.9550781 L106.84841,21.9550781 L106.84841,30.6738281 C106.84841,31.4238319 107.027119,31.971678 107.384542,32.3173828 C107.741966,32.6630877 108.30739,32.8359375 109.080832,32.8359375 C109.819116,32.8359375 110.528094,32.5957055 111.207785,32.1152344 L111.207785,35.1738281 C109.965591,36.158208 108.43045,36.6503906 106.602316,36.6503906 C104.996839,36.6503906 103.748805,36.1904343 102.858175,35.2705078 C101.967546,34.3505813 101.522238,33.093758 101.522238,31.5 L101.522238,21.9550781 L98.5339565,21.9550781 Z M121.153474,10.7929688 L127.270661,10.7929688 L130.46988,26.8945312 L130.768708,29.8828125 L130.909333,29.8828125 L131.190583,26.8945312 L134.389802,10.7929688 L140.524568,10.7929688 L143.723786,26.8945312 L144.005036,29.8828125 L144.145661,29.8828125 L144.444489,26.8945312 L147.643708,10.7929688 L153.760896,10.7929688 L147.714021,36 L140.665193,36 L137.465974,20.7773438 L134.249177,36 L127.200349,36 L121.153474,10.7929688 Z M156.325537,36 L156.325537,10.7929688 L161.669287,10.7929688 L161.669287,21.09375 C162.278665,19.9335879 163.09311,19.0429719 164.112647,18.421875 C165.132183,17.8007781 166.257172,17.4902344 167.487647,17.4902344 C169.374375,17.4902344 170.748384,18.0527287 171.609717,19.1777344 C172.471049,20.30274 172.901709,21.9726452 172.901709,24.1875 L172.901709,36 L167.557959,36 L167.557959,24.6621094 C167.557959,23.5722602 167.347024,22.7402372 166.925147,22.1660156 C166.503269,21.591794 165.888041,21.3046875 165.079443,21.3046875 C164.048188,21.3046875 163.222025,21.7294879 162.600928,22.5791016 C161.979831,23.4287152 161.669287,24.4218693 161.669287,25.5585937 L161.669287,36 L156.325537,36 Z M176.362835,16.4179688 L176.362835,10.7929688 L182.40971,10.7929688 L182.40971,16.4179688 L176.362835,16.4179688 Z M176.714397,36 L176.714397,18.140625 L182.058147,18.140625 L182.058147,36 L176.714397,36 Z M185.730211,36 L185.730211,10.7929688 L191.073961,10.7929688 L191.073961,36 L185.730211,36 Z M193.93743,27.0703125 C193.93743,24.2109232 194.781172,21.8994229 196.46868,20.1357422 C198.156189,18.3720615 200.271402,17.4902344 202.814384,17.4902344 C204.197203,17.4902344 205.436448,17.750974 206.532157,18.2724609 C207.627866,18.7939479 208.515552,19.4970659 209.195243,20.3818359 C209.874934,21.266606 210.393483,22.2714787 210.750907,23.3964844 C211.108331,24.52149 211.28704,25.7109312 211.28704,26.9648438 L211.28704,28.0722656 L199.544852,28.0722656 C199.626884,31.2480628 200.792888,32.8359375 203.042899,32.8359375 C203.81634,32.8359375 204.428639,32.6308614 204.879813,32.2207031 C205.330987,31.8105448 205.556571,31.2832063 205.556571,30.6386719 C205.556571,30.322264 205.521415,30.0234389 205.451102,29.7421875 L210.847587,29.1621094 C210.964775,29.6074241 211.023368,30.0644508 211.023368,30.5332031 C211.023368,31.3183633 210.853448,32.0683558 210.513602,32.7832031 C210.173757,33.4980504 209.675715,34.1484346 209.019462,34.734375 C208.363208,35.3203154 207.501889,35.7861311 206.435477,36.1318359 C205.369066,36.4775408 204.162046,36.6503906 202.814384,36.6503906 C200.212808,36.6503906 198.082946,35.7744228 196.424735,34.0224609 C194.766524,32.2704991 193.93743,29.9531394 193.93743,27.0703125 Z M199.75579,24.6269531 L205.767509,24.6269531 C205.732352,23.654292 205.439386,22.857425 204.888602,22.2363281 C204.337818,21.6152313 203.646419,21.3046875 202.814384,21.3046875 C201.994067,21.3046875 201.311457,21.6035126 200.766532,22.2011719 C200.221607,22.7988311 199.884697,23.6074168 199.75579,24.6269531 Z M10.3515625,51.7929688 L16.5566406,51.7929688 L19.8261719,59.4394531 L20.4765625,62.3046875 L20.6171875,62.3046875 L21.2675781,59.4394531 L24.5371094,51.7929688 L30.7421875,51.7929688 L23.4648438,67.859375 L23.4648438,77 L17.6289062,77 L17.6289062,67.859375 L10.3515625,51.7929688 Z M30.6701102,75.0488281 C29.0646334,73.3144445 28.2619071,70.9882958 28.2619071,68.0703125 C28.2619071,65.1523292 29.0675631,62.8261805 30.6788993,61.0917969 C32.2902355,59.3574132 34.4435342,58.4902344 37.1388602,58.4902344 C39.8341862,58.4902344 41.9904146,59.3574132 43.6076102,61.0917969 C45.2248058,62.8261805 46.0333915,65.1523292 46.0333915,68.0703125 C46.0333915,70.9882958 45.2248058,73.3144445 43.6076102,75.0488281 C41.9904146,76.7832118 39.8341862,77.6503906 37.1388602,77.6503906 C34.4435342,77.6503906 32.2873058,76.7832118 30.6701102,75.0488281 Z M34.6779227,63.8164062 C34.1388575,64.8242238 33.869329,66.2421784 33.869329,68.0703125 C33.869329,69.8984466 34.1388575,71.3164012 34.6779227,72.3242188 C35.2169879,73.3320363 36.0372922,73.8359375 37.1388602,73.8359375 C38.2404282,73.8359375 39.0636622,73.3320363 39.6085868,72.3242188 C40.1535114,71.3164012 40.4259696,69.8984466 40.4259696,68.0703125 C40.4259696,66.2421784 40.1535114,64.8242238 39.6085868,63.8164062 C39.0636622,62.8085887 38.2404282,62.3046875 37.1388602,62.3046875 C36.0372922,62.3046875 35.2169879,62.8085887 34.6779227,63.8164062 Z M48.9847517,70.8125 L48.9847517,59.140625 L54.3109236,59.140625 L54.3109236,70.5839844 C54.3109236,72.751964 55.1136499,73.8359375 56.7191267,73.8359375 C57.5511621,73.8359375 58.2689284,73.4960971 58.872447,72.8164062 C59.4759657,72.1367154 59.7777205,71.2753958 59.7777205,70.2324219 L59.7777205,59.140625 L65.1038923,59.140625 L65.1038923,77 L59.7777205,77 L59.7777205,74.046875 C59.1683424,75.2304747 58.383194,76.1269501 57.4222517,76.7363281 C56.4613094,77.3457062 55.3773359,77.6503906 54.1702986,77.6503906 C52.3890397,77.6503906 51.0794825,77.0498107 50.2415876,75.8486328 C49.4036928,74.6474549 48.9847517,72.9687608 48.9847517,70.8125 Z" id="Sweat-While-You" fill="#C8B259"></path>
        <path d="M178.021484,77 L178.021484,51.7929688 L186.072266,51.7929688 C187.630867,51.7929688 189.092767,52.0537083 190.458008,52.5751953 C191.823249,53.0966823 193.044916,53.8613231 194.123047,54.8691406 C195.201177,55.8769582 196.050778,57.198234 196.671875,58.8330078 C197.292972,60.4677816 197.603516,62.3222553 197.603516,64.3964844 C197.603516,66.4707135 197.292972,68.3251871 196.671875,69.9599609 C196.050778,71.5947347 195.201177,72.9160106 194.123047,73.9238281 C193.044916,74.9316457 191.823249,75.6962865 190.458008,76.2177734 C189.092767,76.7392604 187.630867,77 186.072266,77 L178.021484,77 Z M183.839844,72.6757812 L185.861328,72.6757812 C187.689462,72.6757812 189.08398,71.9931709 190.044922,70.6279297 C191.005864,69.2626885 191.486328,67.1855608 191.486328,64.3964844 C191.486328,61.6074079 191.005864,59.5302803 190.044922,58.1650391 C189.08398,56.7997979 187.689462,56.1171875 185.861328,56.1171875 L183.839844,56.1171875 L183.839844,72.6757812 Z M199.76386,72.5351562 C199.76386,70.4843647 200.645687,68.8818417 202.409368,67.7275391 C204.173049,66.5732364 206.935716,65.9785158 210.697454,65.9433594 C210.697454,63.517566 209.883009,62.3046875 208.254095,62.3046875 C207.550966,62.3046875 206.962105,62.5244119 206.487493,62.9638672 C206.012881,63.4033225 205.775579,64.0273397 205.775579,64.8359375 C205.775579,65.1054701 205.799016,65.3339834 205.845891,65.5214844 L200.80097,66.3125 C200.636906,65.6796843 200.554876,65.0878934 200.554876,64.5371094 C200.554876,62.8847574 201.304868,61.4638731 202.804876,60.2744141 C204.304883,59.084955 206.156427,58.4902344 208.359563,58.4902344 C210.914264,58.4902344 212.880064,59.1201109 214.257024,60.3798828 C215.633984,61.6396547 216.322454,63.5175656 216.322454,66.0136719 L216.322454,72.5 C216.322454,73.4609423 216.715028,73.9414062 217.500188,73.9414062 C218.086129,73.9414062 218.654482,73.7363302 219.205266,73.3261719 L219.205266,76.8242188 C218.607607,77.1289078 218.030465,77.3427728 217.473821,77.4658203 C216.917178,77.5888678 216.234567,77.6503906 215.42597,77.6503906 C214.312683,77.6503906 213.381051,77.407229 212.631048,76.9208984 C211.881044,76.4345679 211.359565,75.7636762 211.066595,74.9082031 C210.363466,75.833989 209.578318,76.5224587 208.711126,76.9736328 C207.843934,77.4248069 206.777538,77.6503906 205.511907,77.6503906 C203.707211,77.6503906 202.298045,77.1787157 201.284368,76.2353516 C200.270691,75.2919875 199.76386,74.0586014 199.76386,72.5351562 Z M205.58222,71.9902344 C205.58222,72.564456 205.74921,73.0156234 206.083196,73.34375 C206.417182,73.6718766 206.841983,73.8359375 207.35761,73.8359375 C208.377147,73.8359375 209.188662,73.3935591 209.792181,72.5087891 C210.395699,71.624019 210.697454,70.5898497 210.697454,69.40625 L210.697454,68.6152344 C208.799007,68.8496105 207.471872,69.256833 206.716009,69.8369141 C205.960145,70.4169951 205.58222,71.1347613 205.58222,71.9902344 Z M221.822642,77 L221.822642,59.140625 L227.166392,59.140625 L227.166392,62.09375 C227.77577,60.9101503 228.560919,60.0136749 229.521861,59.4042969 C230.482803,58.7949188 231.566777,58.4902344 232.773814,58.4902344 C234.566792,58.4902344 235.879279,59.0410101 236.711314,60.1425781 C237.54335,61.2441461 237.959361,62.7499904 237.959361,64.6601562 L237.959361,77 L232.633189,77 L232.633189,65.5566406 C232.633189,63.388661 231.830463,62.3046875 230.224986,62.3046875 C229.392951,62.3046875 228.675184,62.6445279 228.071666,63.3242188 C227.468147,64.0039096 227.166392,64.8652292 227.166392,65.9082031 L227.166392,77 L221.822642,77 Z M243.318924,75.03125 C241.666572,73.2734287 240.840409,70.9531394 240.840409,68.0703125 C240.840409,65.1874856 241.704658,62.8701259 243.433182,61.1181641 C245.161706,59.3662022 247.367739,58.4902344 250.051346,58.4902344 C252.406827,58.4902344 254.284738,59.0878846 255.685135,60.2832031 C257.085533,61.4785216 257.785721,62.9726473 257.785721,64.765625 C257.785721,65.257815 257.727128,65.7617162 257.60994,66.2773438 L252.213456,65.9082031 C252.283768,65.3457003 252.318924,65.0000006 252.318924,64.8710938 C252.318924,63.9921831 252.093341,63.3447286 251.642167,62.9287109 C251.190992,62.5126932 250.602131,62.3046875 249.875565,62.3046875 C249.441969,62.3046875 249.034747,62.3984366 248.653885,62.5859375 C248.273024,62.7734384 247.909746,63.0751932 247.564042,63.4912109 C247.218337,63.9072286 246.945878,64.5048789 246.746659,65.2841797 C246.547439,66.0634805 246.447831,66.9804635 246.447831,68.0351562 C246.447831,69.9570409 246.723218,71.404292 247.274002,72.3769531 C247.824786,73.3496142 248.715403,73.8359375 249.945877,73.8359375 C250.719319,73.8359375 251.331617,73.6308614 251.782792,73.2207031 C252.233966,72.8105448 252.459549,72.2832063 252.459549,71.6386719 C252.459549,71.2988264 252.412675,70.9882827 252.318924,70.7070312 L257.715409,70.0566406 C257.856034,70.4785177 257.926346,70.9707003 257.926346,71.5332031 C257.926346,72.3183633 257.756426,73.0683558 257.416581,73.7832031 C257.076735,74.4980504 256.578693,75.1484346 255.92244,75.734375 C255.266187,76.3203154 254.404867,76.7861311 253.338456,77.1318359 C252.272044,77.4775408 251.065025,77.6503906 249.717362,77.6503906 C247.115786,77.6503906 244.982995,76.7773525 243.318924,75.03125 Z M260.47341,68.0703125 C260.47341,65.2109232 261.317151,62.8994229 263.00466,61.1357422 C264.692168,59.3720615 266.807381,58.4902344 269.350363,58.4902344 C270.733182,58.4902344 271.972427,58.750974 273.068136,59.2724609 C274.163845,59.7939479 275.051531,60.4970659 275.731222,61.3818359 C276.410913,62.266606 276.929462,63.2714787 277.286886,64.3964844 C277.64431,65.52149 277.823019,66.7109312 277.823019,67.9648438 L277.823019,69.0722656 L266.080831,69.0722656 C266.162863,72.2480628 267.328867,73.8359375 269.578878,73.8359375 C270.35232,73.8359375 270.964618,73.6308614 271.415792,73.2207031 C271.866966,72.8105448 272.09255,72.2832063 272.09255,71.6386719 C272.09255,71.322264 272.057394,71.0234389 271.987081,70.7421875 L277.383566,70.1621094 C277.500754,70.6074241 277.559347,71.0644508 277.559347,71.5332031 C277.559347,72.3183633 277.389427,73.0683558 277.049581,73.7832031 C276.709736,74.4980504 276.211694,75.1484346 275.555441,75.734375 C274.899187,76.3203154 274.037868,76.7861311 272.971456,77.1318359 C271.905045,77.4775408 270.698026,77.6503906 269.350363,77.6503906 C266.748787,77.6503906 264.618926,76.7744228 262.960714,75.0224609 C261.302503,73.2704991 260.47341,70.9531394 260.47341,68.0703125 Z M266.291769,65.6269531 L272.303488,65.6269531 C272.268331,64.654292 271.975365,63.857425 271.424581,63.2363281 C270.873797,62.6152313 270.182398,62.3046875 269.350363,62.3046875 C268.530046,62.3046875 267.847436,62.6035126 267.302511,63.2011719 C266.757586,63.7988311 266.420676,64.6074168 266.291769,65.6269531 Z M280.211879,77 L280.211879,70.7773438 L286.258754,70.7773438 L286.258754,77 L280.211879,77 Z" id="Dance." fill="#C8B259"></path>
        <path d="M150,91.7773438 L173.355469,63" id="Stroke-11-Copy" stroke="#C8B259" stroke-width="3.28999999" stroke-linecap="round" stroke-dasharray="1,9"></path>
        <path d="M73.5203529,69.775583 L104.831008,101.439261" id="Stroke-11-Copy-2" stroke="#C8B259" stroke-width="3.28999999" stroke-linecap="round" stroke-dasharray="1,9"></path>
        <g id="Group" transform="translate(116.498071, 103.848339) rotate(-184.000000) translate(-116.498071, -103.848339) translate(110.998071, 89.348339)" stroke="#C8B259" stroke-linecap="round" stroke-width="1.88">
            <path d="M1.53054162,5.32635959 C1.96390976,3.96268294 2.59073727,2.54904933 3.65117235,1.62138319 C5.62670856,-0.106583579 8.26546562,0.41920107 9.28687362,2.35985589 C10.0863301,3.87834965 10.1014142,5.07459629 10.354731,6.54709008 C10.9999946,10.2978191 10.7363823,13.4730539 10.5630351,16.5956113 C10.5333457,17.1298045 10.4660659,17.4629334 9.63093441,17.4582345 C7.82419629,17.4478474 5.068358,17.2502453 3.2632959,17.1644282 C2.3139563,17.1194174 2.00509171,17.0378046 0.693494652,16.7704606 C0.161720817,16.6618908 -0.0118658691,16.5674177 0.0295555057,15.5113968 C0.141608704,12.6712694 0.524457134,8.4919492 1.53054162,5.32635959 Z" id="Stroke-3"></path>
            <path d="M9.49635921,21.6629035 C9.69200674,21.7462469 9.89012457,21.8758125 9.81626268,22.2968406 C9.68212555,23.0598643 9.52649684,23.9316177 9.25352901,24.658957 C8.87582059,25.6657843 8.28690176,26.6187257 7.43464927,27.3005613 C6.58214975,27.9826365 5.44457794,28.3806734 4.3549299,28.2027303 C2.69044373,27.9306666 1.75963579,26.5954949 1.29200855,25.870311 C0.824134283,25.1451271 0.354036749,24.3792295 0.0319100095,21.8437205 C-0.0397286058,21.383176 0.373799125,21.1896659 0.621322893,21.2119387 C1.15243677,21.2598373 2.41278234,21.3041434 2.94537839,21.33408 C4.01600514,21.3939532 5.08687892,21.4538264 6.15750568,21.513939 C7.36721016,21.5817155 8.28690176,21.595127 9.49635921,21.6629035 Z" id="Stroke-5"></path>
        </g>
        <g id="Group" transform="translate(138.066229, 99.814872) scale(-1, 1) rotate(-139.000000) translate(-138.066229, -99.814872) translate(132.566229, 85.314872)" stroke="#C8B259" stroke-linecap="round" stroke-width="1.88">
            <path d="M1.53054162,5.32635959 C1.96390976,3.96268294 2.59073727,2.54904933 3.65117235,1.62138319 C5.62670856,-0.106583579 8.26546562,0.41920107 9.28687362,2.35985589 C10.0863301,3.87834965 10.1014142,5.07459629 10.354731,6.54709008 C10.9999946,10.2978191 10.7363823,13.4730539 10.5630351,16.5956113 C10.5333457,17.1298045 10.4660659,17.4629334 9.63093441,17.4582345 C7.82419629,17.4478474 5.068358,17.2502453 3.2632959,17.1644282 C2.3139563,17.1194174 2.00509171,17.0378046 0.693494652,16.7704606 C0.161720817,16.6618908 -0.0118658691,16.5674177 0.0295555057,15.5113968 C0.141608704,12.6712694 0.524457134,8.4919492 1.53054162,5.32635959 Z" id="Stroke-3"></path>
            <path d="M9.49635921,21.6629035 C9.69200674,21.7462469 9.89012457,21.8758125 9.81626268,22.2968406 C9.68212555,23.0598643 9.52649684,23.9316177 9.25352901,24.658957 C8.87582059,25.6657843 8.28690176,26.6187257 7.43464927,27.3005613 C6.58214975,27.9826365 5.44457794,28.3806734 4.3549299,28.2027303 C2.69044373,27.9306666 1.75963579,26.5954949 1.29200855,25.870311 C0.824134283,25.1451271 0.354036749,24.3792295 0.0319100095,21.8437205 C-0.0397286058,21.383176 0.373799125,21.1896659 0.621322893,21.2119387 C1.15243677,21.2598373 2.41278234,21.3041434 2.94537839,21.33408 C4.01600514,21.3939532 5.08687892,21.4538264 6.15750568,21.513939 C7.36721016,21.5817155 8.28690176,21.595127 9.49635921,21.6629035 Z" id="Stroke-5"></path>
        </g>
    </g>
</svg>