<svg xmlns="http://www.w3.org/2000/svg" width="529" height="488" viewBox="0 0 529 488">
    <g fill="none" fill-rule="evenodd">
        <path fill="#222" d="M424.19 412.707c.059-.678.236-1.224.53-1.639l3.73.589c-.311.511-.483.963-.518 1.355-.058.67.102 1.206.48 1.608.379.401.907.631 1.585.69.64.057 1.163-.076 1.567-.397.404-.322.634-.814.692-1.477.02-.219.002-.427-.053-.625a2.673 2.673 0 0 0-.204-.53 1.85 1.85 0 0 0-.396-.485 8.251 8.251 0 0 0-.487-.418 5.6 5.6 0 0 0-.636-.41 15.606 15.606 0 0 0-.669-.365l-.752-.38a96.03 96.03 0 0 1-.747-.378c-2.282-1.163-3.335-2.755-3.158-4.774.115-1.31.697-2.347 1.747-3.11 1.05-.762 2.467-1.065 4.253-.908.873.076 1.65.264 2.33.562.68.299 1.218.663 1.613 1.092.395.43.683.895.863 1.396.18.502.247 1.013.202 1.533a3.434 3.434 0 0 1-.616 1.7l-3.538-.823c.228-.344.36-.738.4-1.183.039-.444-.067-.795-.318-1.053-.25-.257-.636-.408-1.156-.454-.46-.04-.869.06-1.228.303-.359.242-.56.619-.606 1.131-.016.188 0 .372.049.55.049.18.115.337.198.474.083.136.201.277.356.424.154.146.306.271.456.376.15.104.341.221.573.351.232.13.436.242.614.333l.67.343c.27.138.494.256.676.356.456.245.843.47 1.159.676.316.206.633.462.952.767.319.305.568.62.748.948.18.327.317.72.41 1.18.092.46.114.964.066 1.514-.07.807-.29 1.522-.66 2.146a4.325 4.325 0 0 1-1.417 1.482 6 6 0 0 1-1.935.781 7.448 7.448 0 0 1-2.261.133c-1.823-.16-3.24-.71-4.25-1.653-1.012-.943-1.45-2.186-1.314-3.73zm13.154-5.943l3.537.31 1.199 7.643 2.824-7.292 2.825.248 1.527 7.671 2.507-7.318 3.538.309-4.587 11.168-3.436-.3-1.34-7.326-2.592 6.982-3.424-.3-2.578-11.795zm17.9 7.35c.161-1.837.834-3.276 2.018-4.315 1.184-1.039 2.593-1.487 4.228-1.344.89.078 1.671.315 2.346.712.676.397 1.207.899 1.594 1.506a6.29 6.29 0 0 1 .83 2.026 7.56 7.56 0 0 1 .144 2.324l-.062.712-7.549-.66c-.126 2.046.535 3.132 1.981 3.259.497.043.902-.054 1.216-.293.313-.238.487-.564.524-.979a2.378 2.378 0 0 0-.018-.582l3.502-.07c.05.294.063.59.036.892a3.342 3.342 0 0 1-.454 1.418c-.259.44-.616.83-1.07 1.17-.455.34-1.035.591-1.74.753-.705.163-1.491.206-2.357.13-1.673-.146-2.993-.83-3.96-2.049-.968-1.22-1.37-2.756-1.208-4.61zm3.879-1.243l3.864.338c.033-.627-.111-1.156-.43-1.586a1.714 1.714 0 0 0-1.281-.716 1.714 1.714 0 0 0-1.367.462c-.384.353-.646.854-.786 1.502zm8.488 5.218c.115-1.318.772-2.299 1.97-2.942 1.2-.643 3.009-.87 5.43-.68.136-1.56-.32-2.386-1.367-2.477-.452-.04-.843.068-1.173.324-.33.256-.517.644-.563 1.163-.015.174-.012.322.007.445l-3.288.225a4.579 4.579 0 0 1-.058-1.155c.093-1.063.655-1.934 1.686-2.614 1.031-.68 2.255-.959 3.672-.835 1.642.144 2.87.66 3.685 1.547.814.887 1.151 2.133 1.01 3.738l-.364 4.17c-.054.618.171.949.676.993.377.033.754-.067 1.13-.3l-.196 2.249a4.71 4.71 0 0 1-1.15.315 6.235 6.235 0 0 1-1.326.004c-.716-.063-1.301-.272-1.756-.627a2.45 2.45 0 0 1-.893-1.382c-.504.556-1.047.954-1.63 1.196-.583.241-1.281.326-2.095.255-1.16-.102-2.04-.484-2.638-1.148-.599-.663-.855-1.485-.77-2.464zm3.77-.023c-.032.37.05.669.247.898.196.23.46.36.791.388.656.058 1.202-.181 1.64-.716.438-.535.69-1.183.757-1.944l.044-.508c-1.234.044-2.11.231-2.628.561-.519.33-.802.771-.85 1.321zm8.979-5.068l.214-2.452 1.921.168.312-3.56 3.526-.864-.413 4.724 2.43.212-.215 2.453-2.43-.213-.49 5.605c-.043.482.041.845.252 1.087.21.242.564.385 1.061.429.475.041.944-.073 1.408-.344l-.172 1.966c-.854.563-1.869.793-3.044.69-1.032-.09-1.808-.456-2.33-1.097-.52-.642-.736-1.475-.646-2.5l.537-6.136-1.921-.168z"/>
        <path stroke="#222" stroke-width="4.311" d="M521.73 423.784c-4.826 36.299-38.21 61.791-74.566 56.938-36.356-4.853-61.917-38.215-57.091-74.514 4.825-36.3 79.675-95.381 79.675-95.381s56.806 76.657 51.981 112.957z"/>
        <path fill="#222" d="M226.513 400.395c0-.681.128-1.24.385-1.68l3.767.262c-.265.537-.397 1.002-.397 1.395 0 .673.206 1.193.618 1.56.412.367.958.55 1.639.55.643 0 1.151-.178 1.526-.533.374-.356.561-.866.561-1.532 0-.219-.036-.425-.108-.618a2.673 2.673 0 0 0-.25-.51 1.85 1.85 0 0 0-.436-.449 8.25 8.25 0 0 0-.522-.374 5.6 5.6 0 0 0-.669-.352 15.606 15.606 0 0 0-.698-.306l-.782-.312c-.352-.14-.611-.244-.777-.312-2.375-.96-3.562-2.454-3.562-4.48 0-1.316.49-2.4 1.469-3.25.979-.851 2.365-1.277 4.157-1.277.877 0 1.668.12 2.371.358.703.238 1.27.553 1.702.947.43.393.758.832.98 1.316.224.484.336.987.336 1.508 0 .628-.155 1.21-.466 1.747l-3.596-.51c.197-.363.295-.768.295-1.214 0-.446-.136-.786-.408-1.02-.272-.235-.67-.353-1.191-.353-.461 0-.86.137-1.197.409-.336.272-.505.665-.505 1.18 0 .189.032.37.097.544.064.174.143.325.238.454.094.128.225.259.391.391.167.133.33.244.488.335.159.09.36.19.601.3.242.11.456.203.641.278l.698.284c.28.113.514.212.703.295.477.204.881.395 1.214.573.333.178.671.404 1.015.68.344.277.62.57.828.88.208.31.379.69.51 1.14.133.45.2.95.2 1.503 0 .809-.157 1.54-.471 2.195a4.325 4.325 0 0 1-1.282 1.6 6 6 0 0 1-1.86.947c-.7.219-1.447.329-2.241.329-1.83 0-3.29-.426-4.379-1.277-1.089-.85-1.633-2.051-1.633-3.601zm14.956 3.187c-1.066-1.134-1.599-2.632-1.599-4.492 0-1.86.558-3.356 1.673-4.486 1.116-1.131 2.54-1.696 4.271-1.696 1.52 0 2.732.385 3.636 1.157.904.771 1.356 1.735 1.356 2.892 0 .318-.038.643-.114.976l-3.482-.238c.045-.363.068-.586.068-.67 0-.567-.146-.985-.437-1.253-.291-.269-.671-.403-1.14-.403-.28 0-.543.06-.789.182-.245.12-.48.315-.703.584-.223.268-.399.654-.527 1.157-.129.503-.193 1.095-.193 1.775 0 1.24.177 2.175.533 2.802.355.628.93.942 1.724.942.5 0 .894-.132 1.186-.397.29-.265.436-.605.436-1.021 0-.22-.03-.42-.09-.601l3.482-.42c.09.272.136.59.136.953 0 .507-.11.99-.329 1.452-.219.461-.54.88-.964 1.259-.423.378-.98.679-1.667.902-.689.223-1.468.335-2.337.335-1.68 0-3.056-.564-4.13-1.69zm11.384 1.27v-11.525h3.448v1.747c.31-.703.734-1.24 1.271-1.61.537-.371 1.157-.556 1.86-.556.764 0 1.339.14 1.725.42l-.239 2.835a2.243 2.243 0 0 0-1.508-.556c-.93 0-1.681.456-2.252 1.367-.571.912-.857 2.03-.857 3.353v4.526h-3.448zm8.718-5.762c0-1.845.544-3.337 1.633-4.475 1.09-1.138 2.454-1.707 4.095-1.707.893 0 1.692.168 2.4.504.707.337 1.28.79 1.718 1.362a6.29 6.29 0 0 1 1.004 1.945 7.56 7.56 0 0 1 .346 2.303v.715h-7.578c.053 2.05.806 3.074 2.258 3.074.499 0 .894-.132 1.185-.397.291-.265.437-.605.437-1.021 0-.204-.023-.397-.068-.579l3.482-.374c.076.287.114.582.114.885 0 .507-.11.99-.33 1.452-.218.461-.54.88-.963 1.259-.424.378-.98.679-1.668.902-.688.223-1.467.335-2.337.335-1.679 0-3.053-.566-4.123-1.696-1.07-1.131-1.605-2.627-1.605-4.487zm3.754-1.577h3.88c-.023-.627-.212-1.142-.567-1.543a1.714 1.714 0 0 0-1.339-.6c-.53 0-.97.192-1.321.578-.352.385-.57.907-.653 1.565zm8.91 4.458c0-1.323.57-2.357 1.708-3.102 1.138-.745 2.921-1.129 5.349-1.152 0-1.565-.526-2.348-1.577-2.348-.454 0-.834.142-1.14.426-.306.283-.46.686-.46 1.208 0 .174.016.321.046.442l-3.256.51a4.579 4.579 0 0 1-.159-1.145c0-1.066.484-1.983 1.452-2.751.968-.768 2.163-1.151 3.585-1.151 1.649 0 2.917.406 3.806 1.22.889.812 1.333 2.024 1.333 3.635v4.186c0 .62.253.93.76.93.378 0 .745-.132 1.1-.397v2.257a4.71 4.71 0 0 1-1.117.414c-.36.08-.8.12-1.322.12-.718 0-1.32-.157-1.803-.471a2.45 2.45 0 0 1-1.01-1.3c-.454.598-.96 1.043-1.52 1.334-.56.29-1.248.437-2.065.437-1.164 0-2.074-.305-2.728-.914-.654-.608-.981-1.404-.981-2.388zm3.756-.351c0 .37.107.661.323.873.216.212.49.318.822.318.658 0 1.182-.286 1.572-.857.39-.57.584-1.238.584-2.002v-.51c-1.225.151-2.082.414-2.57.788-.487.374-.731.838-.731 1.39zm10.362 3.233v-11.526h3.449v1.77c.287-.666.77-1.197 1.446-1.594a4.347 4.347 0 0 1 2.24-.595c.742 0 1.356.206 1.844.618.488.412.796.981.924 1.707.9-1.55 2.156-2.325 3.767-2.325 1.981 0 2.972 1.247 2.972 3.743v8.202h-3.437v-7.691c0-.59-.103-1.036-.307-1.339-.204-.303-.544-.454-1.02-.454-.538 0-.978.21-1.322.63-.344.42-.516.924-.516 1.514v7.34h-3.438v-7.6c0-.583-.107-1.042-.323-1.379-.215-.336-.55-.505-1.004-.505-.53 0-.966.204-1.31.613-.344.408-.516.949-.516 1.622v7.249h-3.449z"/>
        <path stroke="#222" stroke-width="4.311" d="M368.929 390.554l-51.175 15.865 44.626 29.693-56.042-9.031 18.777 42.773-43.117-31.06-13.034 42.273-16.502-43.228-40.708 28.352 15.352-41.67-55.456 5.427 42.332-26.883-52.598-19.218 55.872-3.562-33.04-37.763 51.672 20.893-2.992-44.319 31.068 38.712 28.005-36.803.6 44.241 50.111-17.603-30.06 35.725z"/>
        <path fill="#222" d="M364.072 223.21c.051-.725.212-1.29.483-1.696l3.547.67c-.204.417-.319.815-.345 1.192-.04.573.077 1.008.352 1.304.275.296.669.462 1.182.497.679.048 1.167-.189 1.465-.71.298-.521.487-1.348.566-2.48l.738-10.546 3.757.263-.7 9.992c-.078 1.124-.231 2.072-.46 2.845-.228.772-.574 1.438-1.038 1.997-.463.559-1.077.954-1.84 1.184-.762.231-1.69.309-2.785.232-1.607-.112-2.853-.577-3.74-1.393-.887-.816-1.28-1.934-1.182-3.352zm13.327.908l.525-7.514 3.43.24-.516 7.367c-.098 1.396.37 2.13 1.404 2.202.536.037 1.013-.15 1.432-.56.42-.41.652-.95.7-1.622l.498-7.14 3.43.239-.805 11.497-3.429-.24.133-1.9c-.445.734-.991 1.276-1.637 1.625a3.836 3.836 0 0 1-2.135.442c-1.146-.08-1.962-.526-2.448-1.337-.485-.811-.68-1.91-.582-3.299zm12.39 4.87l.804-11.498 3.44.24-.124 1.766c.333-.644.851-1.14 1.554-1.489a4.347 4.347 0 0 1 2.277-.438c.74.052 1.338.3 1.796.745.458.446.725 1.035.803 1.768 1.006-1.484 2.312-2.17 3.92-2.057 1.976.138 2.877 1.452 2.703 3.942l-.572 8.181-3.43-.24.537-7.672c.042-.588-.03-1.04-.212-1.357-.182-.316-.511-.49-.987-.523a1.633 1.633 0 0 0-1.362.535c-.372.395-.58.887-.62 1.475l-.512 7.322-3.43-.24.531-7.582c.04-.58-.035-1.047-.226-1.397-.192-.351-.514-.542-.967-.574a1.64 1.64 0 0 0-1.35.52c-.371.383-.58.91-.628 1.582l-.505 7.231-3.44-.24zm18.437 6.042l1.135-16.228 3.44.241-.085 1.21a3.534 3.534 0 0 1 1.454-1.114 4.026 4.026 0 0 1 1.851-.292c1.366.096 2.402.722 3.11 1.878.707 1.157.994 2.689.861 4.598-.136 1.939-.649 3.423-1.54 4.452-.89 1.03-2.003 1.498-3.339 1.404-.746-.052-1.373-.255-1.879-.609a3.637 3.637 0 0 1-1.151-1.263l-.417 5.964-3.44-.24zm4.647-12.957c-.392.625-.63 1.525-.712 2.702-.082 1.177.027 2.102.33 2.775.3.673.806 1.034 1.515 1.084.71.05 1.262-.238 1.658-.862.397-.624.636-1.525.718-2.702.082-1.177-.03-2.102-.335-2.775-.305-.673-.812-1.035-1.522-1.084-.709-.05-1.26.237-1.652.862z"/>
        <path stroke="#222" stroke-width="4.311" d="M431.274 313.993l7.219-104.949 45.954 3.169-82.428-94.532-94.594 82.326 43.26 2.983-7.218 104.949z"/>
        <g>
            <path fill="#222" d="M146.313 254.178l-.243-2.78 5.78-10.208 1.049-1.025-.008-.09-7.244.633-.243-2.78 10.577-.925.244 2.78-5.763 10.274-.874.942.008.09 8.023-.701.243 2.78-11.549 1.01zm14.191-2.506c-1.13-1.024-1.776-2.475-1.94-4.35-.165-1.876.223-3.417 1.16-4.623.94-1.206 2.275-1.884 4.008-2.036 1.732-.151 3.167.285 4.305 1.309 1.137 1.024 1.788 2.474 1.952 4.35.164 1.876-.225 3.417-1.167 4.623-.942 1.206-2.28 1.884-4.013 2.036-1.732.152-3.167-.285-4.305-1.309zm1.945-7.446c-.29.678-.383 1.605-.28 2.78.102 1.175.355 2.072.759 2.69.403.617.959.895 1.667.833.708-.062 1.209-.432 1.502-1.111.294-.679.39-1.605.287-2.78-.103-1.176-.358-2.072-.765-2.69-.407-.617-.965-.894-1.673-.833-.708.062-1.207.433-1.497 1.11zm9.912 7.673l-1.005-11.482 3.436-.3.166 1.898c.325-.795.78-1.415 1.363-1.861a3.836 3.836 0 0 1 2.04-.77c1.152-.101 2.027.179 2.624.84.596.662.949 1.606 1.056 2.834l.694 7.933-3.424.3-.644-7.357c-.122-1.394-.699-2.045-1.73-1.955-.536.047-.978.306-1.328.777-.35.47-.495 1.041-.436 1.712l.623 7.13-3.435.301zm11.629-6.802c-.16-1.838.252-3.372 1.237-4.6.986-1.23 2.296-1.915 3.931-2.058.889-.078 1.7.02 2.434.293.734.274 1.344.676 1.83 1.207a6.29 6.29 0 0 1 1.17 1.85 7.56 7.56 0 0 1 .546 2.264l.062.712-7.549.66c.232 2.038 1.07 2.993 2.517 2.866.497-.043.88-.21 1.146-.498.267-.29.383-.641.346-1.056a2.378 2.378 0 0 0-.118-.57l3.437-.676c.1.28.164.57.19.871.044.505-.023.997-.201 1.475a3.979 3.979 0 0 1-.85 1.339c-.39.413-.917.761-1.584 1.044-.666.282-1.432.46-2.298.537-1.673.146-3.091-.297-4.256-1.33-1.165-1.034-1.828-2.477-1.99-4.33zm3.603-1.898l3.865-.338c-.077-.624-.31-1.12-.7-1.488a1.714 1.714 0 0 0-1.385-.482c-.528.046-.95.277-1.267.692-.316.414-.487.953-.513 1.616zm14.998 1.705c-.459-1.075-.75-2.322-.874-3.738s-.051-2.692.218-3.828c.268-1.136.699-2.071 1.291-2.806a6.547 6.547 0 0 1 2.11-1.733c.813-.42 1.72-.675 2.722-.762 1.002-.088 1.94.005 2.815.277a6.49 6.49 0 0 1 2.372 1.341c.707.622 1.291 1.468 1.753 2.54.462 1.072.755 2.316.88 3.732.123 1.417.05 2.693-.218 3.828-.27 1.136-.698 2.073-1.286 2.812a6.455 6.455 0 0 1-2.102 1.738c-.814.42-1.722.674-2.724.762-1.002.088-1.94-.005-2.814-.278a6.512 6.512 0 0 1-2.378-1.346c-.711-.625-1.3-1.471-1.765-2.539zm3.426-8.475c-.415.977-.538 2.442-.367 4.393.17 1.951.548 3.374 1.13 4.268.584.894 1.425 1.293 2.525 1.197 1.1-.096 1.858-.635 2.273-1.617.415-.981.537-2.447.366-4.399-.17-1.951-.545-3.374-1.125-4.268-.579-.895-1.418-1.294-2.518-1.198-1.1.097-1.862.638-2.284 1.624zm12.181 7.451l-.656-7.503 3.424-.3.644 7.357c.122 1.394.699 2.045 1.73 1.955.536-.047.978-.305 1.328-.776.35-.471.495-1.042.437-1.712l-.624-7.131 3.424-.3 1.004 11.482-3.424.3-.166-1.9c-.325.796-.78 1.416-1.363 1.862a3.836 3.836 0 0 1-2.04.77c-1.144.101-2.02-.211-2.626-.937-.606-.725-.97-1.78-1.092-3.167zm11.373-6.085l-.214-2.452 1.92-.168-.31-3.56 3.322-1.463.413 4.723 2.43-.212.214 2.452-2.43.213.491 5.605c.042.482.188.824.437 1.026.25.203.623.282 1.12.238.474-.041.917-.235 1.327-.583l.172 1.967c-.744.702-1.703 1.105-2.878 1.208-1.032.09-1.86-.135-2.485-.676-.624-.542-.981-1.325-1.07-2.35l-.538-6.136-1.92.168z"/>
            <path stroke="#222" stroke-width="4.311" d="M281.844 221.087c-1.297-14.824-15.907-25.656-32.633-24.193a33.811 33.811 0 0 0-10.384 2.592c-4.956-10.285-16.955-16.961-30.312-15.793-6.919.605-13.112 3.224-17.909 7.132-6.095-6.04-15.263-9.491-25.174-8.624-12.88 1.127-23.252 9.22-26.75 19.65a34.428 34.428 0 0 0-5.013.069c-16.725 1.463-29.232 14.667-27.935 29.49a24.126 24.126 0 0 0 2.131 8.01c-6.656 5.533-10.548 13.575-9.796 22.167 1.297 14.825 15.907 25.656 32.632 24.192a34.357 34.357 0 0 0 6.003-1.066c3.036 13.06 16.657 22.179 32.088 20.829 9.816-.859 18.173-5.764 23.145-12.665 6.07 6.64 15.678 10.512 26.11 9.6 12.018-1.052 21.858-8.165 25.964-17.585.886.199 1.787.369 2.71.497 16.515 2.302 32.287-7.763 35.227-22.48 1.68-8.41-1.2-16.517-7.054-22.353 4.888-5.3 7.587-12.187 6.95-19.47z"/>
        </g>
        <g>
            <path fill="#222" d="M60.748 426.117c-.06-1.14.005-2.19.193-3.146.189-.956.477-1.776.865-2.459a6.625 6.625 0 0 1 1.42-1.75 6.02 6.02 0 0 1 1.839-1.102 7.136 7.136 0 0 1 2.147-.436c1.918-.1 3.471.318 4.66 1.255 1.19.938 1.83 2.286 1.922 4.046.02.4-.016.853-.11 1.357l-3.73-.065c.07-.413.092-.853.067-1.322-.043-.823-.296-1.455-.758-1.897-.463-.441-1.098-.64-1.906-.598-.99.051-1.735.594-2.238 1.628-.502 1.033-.705 2.464-.61 4.291.096 1.828.448 3.23 1.056 4.205.607.975 1.406 1.437 2.395 1.385.808-.042 1.42-.305 1.833-.789.414-.483.6-1.137.556-1.96a6.115 6.115 0 0 0-.205-1.318l3.702-.456c.147.493.23.939.252 1.339.093 1.767-.403 3.18-1.488 4.236-1.084 1.056-2.585 1.635-4.504 1.735-.997.052-1.918-.074-2.763-.378a6.19 6.19 0 0 1-2.262-1.432c-.662-.65-1.198-1.518-1.607-2.602-.409-1.084-.65-2.34-.726-3.767zm15.589 7.327l-.851-16.245 3.443-.18.852 16.245-3.444.18zm4.872-12.91l-.19-3.625 3.897-.204.19 3.625-3.897.205zm.888 12.609l-.603-11.51 3.444-.18.603 11.509-3.444.18zm5.692-.299l-.603-11.51 3.444-.18.093 1.767c.252-.68.706-1.235 1.36-1.667a4.347 4.347 0 0 1 2.207-.712c.74-.039 1.364.135 1.873.52.509.387.846.94 1.013 1.657.817-1.595 2.03-2.435 3.64-2.519 1.978-.104 3.032 1.09 3.163 3.583l.43 8.19-3.433.18-.403-7.68c-.03-.59-.156-1.03-.376-1.321-.22-.292-.567-.425-1.043-.4-.536.028-.965.26-1.287.698-.321.437-.467.95-.436 1.54l.384 7.329-3.432.18-.398-7.59c-.03-.582-.162-1.035-.395-1.36-.233-.325-.576-.475-1.03-.451a1.64 1.64 0 0 0-1.276.68c-.322.426-.465.975-.43 1.647l.38 7.239-3.445.18zm18.913-.991l-.851-16.245 3.444-.18.312 5.97c.27-.484.661-.898 1.173-1.243.513-.345 1.142-.537 1.89-.576 1.337-.07 2.441.417 3.314 1.462.873 1.045 1.36 2.537 1.462 4.478.1 1.911-.214 3.438-.942 4.582-.727 1.144-1.775 1.752-3.142 1.823-1.344.07-2.437-.413-3.279-1.452l-.549 1.233-2.832.148zm3.282-8.692c-.314.668-.44 1.591-.378 2.77.062 1.177.284 2.082.665 2.713.382.632.927.929 1.637.891.71-.037 1.224-.39 1.54-1.057.318-.668.446-1.591.384-2.77-.062-1.177-.285-2.082-.67-2.713-.386-.631-.933-.928-1.643-.891-.71.037-1.222.39-1.535 1.057z"/>
            <path stroke="#222" stroke-width="4.311" d="M94.586 337.435l2.096 31.934-29.319 1.924 2.096 31.935-31.936 2.095 1.959 29.84-37.172 2.44 2.268 34.552 39.613-2.6 32.162-2.11 32.161-2.11 29.044-1.906-2.365-36.033-2.11-32.16-2.111-32.159-1.832-27.91z"/>
        </g>
        <g>
            <path stroke="#222" stroke-width="4.311" d="M509.654 95.386l-68.897 30.282-44.185-60.92L413.302 3l113.082 30.639z"/>
            <path fill="#222" d="M428.538 54.386c.176-.658.445-1.165.807-1.522l3.57 1.227c-.395.45-.643.865-.745 1.245-.174.65-.11 1.205.194 1.666.303.461.783.78 1.44.956.622.166 1.159.126 1.613-.12.453-.247.766-.691.938-1.334.057-.212.076-.42.056-.625a2.673 2.673 0 0 0-.109-.558 1.85 1.85 0 0 0-.306-.546 8.25 8.25 0 0 0-.407-.496 5.6 5.6 0 0 0-.555-.513c-.25-.208-.448-.367-.595-.477l-.675-.503a96.037 96.037 0 0 1-.67-.503c-2.045-1.542-2.805-3.292-2.28-5.25.34-1.271 1.093-2.19 2.26-2.76 1.165-.567 2.614-.62 4.345-.156.848.227 1.58.547 2.198.959.618.412 1.084.864 1.399 1.355.314.492.517 1 .607 1.525.09.526.068 1.04-.067 1.544a3.434 3.434 0 0 1-.902 1.567l-3.341-1.423c.284-.3.483-.666.599-1.096.115-.431.072-.795-.13-1.092-.203-.297-.556-.513-1.06-.648a1.844 1.844 0 0 0-1.262.084c-.395.176-.66.513-.793 1.01a1.558 1.558 0 0 0-.047.55c.017.185.054.352.112.5.058.149.15.309.277.48.126.17.255.32.385.449s.297.277.503.446c.205.169.387.313.547.434l.6.455c.241.182.442.337.603.467.408.32.749.61 1.024.867.276.258.544.565.805.92.26.356.452.71.572 1.064.12.353.187.764.198 1.233.012.47-.054.97-.197 1.504-.21.781-.55 1.447-1.023 1.998a4.325 4.325 0 0 1-1.652 1.213 6 6 0 0 1-2.042.434 7.448 7.448 0 0 1-2.25-.262c-1.767-.474-3.067-1.263-3.899-2.366-.831-1.104-1.047-2.405-.645-3.902zm13.622 6.95c-.737-1.372-.864-2.956-.383-4.753.482-1.797 1.408-3.097 2.778-3.9 1.37-.804 2.891-.982 4.564-.534 1.469.394 2.54 1.08 3.213 2.06.673.978.86 2.026.56 3.144a4.395 4.395 0 0 1-.362.913l-3.302-1.131c.138-.34.217-.549.239-.63.147-.547.114-.988-.097-1.323-.212-.335-.545-.563-.997-.684a1.761 1.761 0 0 0-.809-.029c-.269.053-.546.18-.83.382-.286.202-.555.529-.81.982-.254.452-.47 1.007-.645 1.664-.321 1.198-.391 2.147-.21 2.845.18.698.654 1.15 1.421 1.356.482.129.898.103 1.248-.077s.579-.471.686-.873c.057-.212.08-.413.068-.604l3.473.496c.017.286-.021.605-.115.955-.132.49-.363.929-.694 1.318-.331.388-.75.71-1.257.966-.507.256-1.122.402-1.844.44-.723.037-1.504-.057-2.344-.282-1.622-.434-2.806-1.335-3.551-2.701zm12.1 3.254c-.712-1.35-.824-2.934-.336-4.753.487-1.819 1.378-3.134 2.672-3.946 1.294-.812 2.781-.993 4.461-.543 1.68.45 2.88 1.351 3.598 2.702.718 1.352.834 2.937.346 4.756-.487 1.819-1.38 3.134-2.677 3.945-1.298.81-2.787.991-4.467.54-1.68-.45-2.88-1.35-3.598-2.701zm4.374-6.333c-.505.538-.91 1.377-1.215 2.517-.305 1.14-.374 2.068-.207 2.787.168.718.595 1.17 1.282 1.353.687.184 1.284.007 1.792-.53s.915-1.375 1.22-2.515c.305-1.14.372-2.069.201-2.788-.171-.72-.6-1.171-1.287-1.355-.687-.184-1.282-.007-1.786.531zm6.623 10.583l2.983-11.132 3.332.892-.453 1.688c.482-.6 1.03-1.009 1.645-1.228.614-.219 1.261-.237 1.94-.055.738.198 1.257.482 1.557.852l-.964 2.677a2.243 2.243 0 0 0-1.313-.927c-.899-.24-1.742.005-2.53.738-.786.732-1.351 1.737-1.694 3.016l-1.171 4.372-3.332-.893zm9.913-3.31c.477-1.782 1.39-3.082 2.736-3.9 1.346-.817 2.812-1.014 4.397-.589.862.231 1.591.6 2.187 1.109.596.508 1.032 1.094 1.308 1.76a6.29 6.29 0 0 1 .466 2.138 7.56 7.56 0 0 1-.262 2.314l-.185.69-7.32-1.96c-.479 1.993-.017 3.177 1.385 3.553.483.13.899.104 1.248-.077.35-.18.579-.471.686-.873.053-.197.081-.39.084-.576l3.461.54a3.462 3.462 0 0 1-.12.884c-.13.49-.362.928-.693 1.317-.331.389-.75.711-1.257.967-.507.255-1.122.402-1.844.44-.723.037-1.504-.057-2.344-.282-1.622-.435-2.803-1.337-3.544-2.706-.741-1.369-.87-2.952-.39-4.749zm4.035-.551l3.747 1.004c.14-.612.091-1.158-.149-1.637a1.714 1.714 0 0 0-1.137-.927 1.714 1.714 0 0 0-1.426.217c-.44.281-.785.729-1.035 1.343z"/>
        </g>
    </g>
</svg>
