<?xml version="1.0" encoding="UTF-8"?>
<svg width="234px" height="21px" viewBox="0 0 234 21" version="1.1" xmlns="http://www.w3.org/2000/svg" xmlns:xlink="http://www.w3.org/1999/xlink">
    <!-- Generator: Sketch 49.1 (51147) - http://www.bohemiancoding.com/sketch -->
    <title>logo</title>
    <desc>Created with Sketch.</desc>
    <defs>
        <polygon id="path-1" points="0 21 233.18925 21 233.18925 0 0 0"></polygon>
    </defs>
    <g id="Symbols" stroke="none" stroke-width="1" fill="none" fill-rule="evenodd">
        <g id="Header-Border" transform="translate(-529.000000, -25.000000)">
            <g id="Logo" transform="translate(529.000000, 25.000000)">
                <g id="Group-2">
                    <g id="Page-1">
                        <path d="M73.59933,9.478455 L149.13633,9.478455" id="Stroke-1" stroke="#2B2B2B" stroke-width="2" stroke-linecap="round" stroke-linejoin="round"></path>
                        <path d="M5.31657,0.40278 L0.00042,16.32498 L3.76992,16.32498 L4.89657,12.47778 L9.41472,12.47778 L10.53192,16.32498 L14.30142,16.32498 L8.98527,0.40278 L5.31657,0.40278 Z M6.87267,5.74203 L7.13307,4.41483 L7.18032,4.41483 L7.44177,5.75043 L8.64507,9.84123 L5.65572,9.84123 L6.87267,5.74203 Z" id="Fill-2" fill="#2B2B2B"></path>
                        <g id="Group-19">
                            <path d="M25.421235,14.3115 C25.630185,13.8663 25.736235,13.39275 25.736235,12.9045 C25.736235,12.57375 25.696335,12.27975 25.619685,12.02775 L22.378335,12.42675 C22.425585,12.5937 22.448685,12.7764 22.448685,12.9717 C22.448685,13.3959 22.298535,13.7487 22.000335,14.02065 C21.704235,14.2905 21.297885,14.427 20.793885,14.427 C19.992735,14.427 19.403685,14.10465 19.044585,13.4694 C18.690735,12.84465 18.511185,11.90595 18.511185,10.6785 C18.511185,10.00545 18.576285,9.4122 18.703335,8.9145 C18.831435,8.4126 19.010985,8.02095 19.234635,7.7511 C19.459335,7.48125 19.698735,7.2828 19.947585,7.161 C20.196435,7.03815 20.466285,6.9762 20.749785,6.9762 C21.224385,6.9762 21.614985,7.1148 21.912135,7.3878 C22.210335,7.6629 22.361535,8.0934 22.361535,8.66565 C22.361535,8.7465 22.341585,8.94495 22.301685,9.27255 L25.549335,9.5004 C25.613385,9.1938 25.646985,8.89035 25.646985,8.59845 C25.646985,7.4802 25.210185,6.53625 24.351285,5.79075 C23.489235,5.04315 22.315335,4.66305 20.861085,4.66305 C19.177935,4.66305 17.775135,5.2206 16.691535,6.3189 C15.607935,7.41615 15.058785,8.8914 15.058785,10.7016 C15.058785,12.5118 15.585885,13.98705 16.625385,15.08535 C17.664885,16.1826 19.018335,16.7391 20.648985,16.7391 C21.482685,16.7391 22.239735,16.62885 22.899135,16.4115 C23.556435,16.19625 24.094035,15.9012 24.497235,15.53475 C24.900435,15.16935 25.211235,14.75775 25.421235,14.3115" id="Fill-3" fill="#2B2B2B"></path>
                            <path d="M29.916285,15.87852 C30.470685,16.44972 31.261335,16.73952 32.265135,16.73952 C33.399135,16.73952 34.366185,16.43292 35.138985,15.82917 L35.138985,14.01897 C34.725285,14.28987 34.289535,14.42637 33.842235,14.42637 C33.337185,14.42637 32.961285,14.31087 32.723985,14.08092 C32.485635,13.85097 32.364885,13.48557 32.364885,12.99417 L32.364885,7.38927 L34.757835,7.38927 L34.757835,5.07717 L32.364885,5.07717 L32.364885,0.42567 L29.079435,1.53867 L29.079435,5.07717 L27.189435,5.07717 L27.189435,7.38927 L29.079435,7.38927 L29.079435,13.51917 C29.079435,14.51352 29.360835,15.30732 29.916285,15.87852" id="Fill-5" fill="#2B2B2B"></path>
                            <path d="M36.78255,2.13759 C36.78255,3.09099 37.5585,3.86694 38.5119,3.86694 L38.8311,3.86694 C39.7845,3.86694 40.56045,3.09099 40.56045,2.13759 C40.56045,1.17894 39.7845,0.40299 38.8311,0.40299 L38.5119,0.40299 C37.5585,0.40299 36.78255,1.17894 36.78255,2.13234 L36.78255,2.13759 Z" id="Fill-7" fill="#2B2B2B"></path>
                            <mask id="mask-2" fill="white">
                                <use xlink:href="#path-1"></use>
                            </mask>
                            <g id="Clip-10"></g>
                            <polygon id="Fill-9" fill="#2B2B2B" mask="url(#mask-2)" points="37.05135 16.3254 40.3368 16.3254 40.3368 5.0778 37.05135 5.0778"></polygon>
                            <polygon id="Fill-11" fill="#2B2B2B" mask="url(#mask-2)" points="50.044995 5.077275 47.854695 12.628875 45.652845 5.077275 42.276045 5.077275 46.195695 16.324875 49.502145 16.324875 53.421795 5.077275"></polygon>
                            <path d="M57.760185,9.18162 L57.768585,9.11757 C57.851535,8.46657 58.073085,7.94262 58.425885,7.55832 C58.782885,7.17192 59.235435,6.97557 59.770935,6.97557 C60.313785,6.97557 60.771585,7.17927 61.131735,7.58142 C61.488735,7.98042 61.681935,8.49912 61.703985,9.12282 L61.706085,9.18162 L57.760185,9.18162 Z M65.103885,10.63377 C65.103885,9.84627 64.990485,9.08817 64.765785,8.38152 C64.541085,7.67592 64.211385,7.03647 63.785085,6.48102 C63.360885,5.92767 62.798085,5.48142 62.112435,5.15592 C61.425735,4.82937 60.637185,4.66347 59.770935,4.66347 C58.177035,4.66347 56.833035,5.22312 55.775685,6.32772 C54.717285,7.43232 54.180735,8.90127 54.180735,10.69467 C54.180735,12.50697 54.707835,13.98432 55.747335,15.08367 C56.785785,16.18197 58.140285,16.73952 59.770935,16.73952 C60.605685,16.73952 61.362735,16.62927 62.022135,16.41192 C62.679435,16.19562 63.218085,15.90057 63.621285,15.53517 C64.024485,15.16872 64.335285,14.75712 64.544235,14.31192 C64.753185,13.86672 64.858185,13.39317 64.858185,12.90492 C64.858185,12.62982 64.826685,12.35787 64.762635,12.09432 L61.519185,12.45132 C61.554885,12.61512 61.572735,12.79047 61.572735,12.97107 C61.572735,13.39632 61.421535,13.74912 61.123335,14.02002 C60.827235,14.28987 60.420885,14.42637 59.916885,14.42637 C58.454235,14.42637 57.686685,13.38792 57.634185,11.34042 L57.632085,11.28162 L65.103885,11.28162 L65.103885,10.63377 Z" id="Fill-12" fill="#2B2B2B" mask="url(#mask-2)"></path>
                            <path d="M159.65922,15.49359 C160.71762,16.31994 162.15822,16.73889 163.94112,16.73889 C164.71287,16.73889 165.44892,16.63074 166.12827,16.41759 C166.80657,16.20444 167.41662,15.89364 167.94057,15.49359 C168.46242,15.09459 168.88137,14.57169 169.18482,13.93749 C169.48932,13.30434 169.64262,12.58404 169.64262,11.79969 C169.64262,11.26419 169.57857,10.77174 169.45047,10.33494 C169.32237,9.90024 169.15542,9.52749 168.95592,9.22824 C168.75537,8.92899 168.48552,8.64234 168.15267,8.37459 C167.81982,8.10684 167.48697,7.88424 167.16357,7.71099 C166.84227,7.53879 166.44222,7.34979 165.97497,7.14819 C165.78807,7.06629 165.55497,6.96864 165.28302,6.85839 C165.00687,6.74709 164.77797,6.65364 164.59527,6.57909 C164.41362,6.50454 164.20047,6.41319 163.96107,6.30399 C163.72167,6.19584 163.52007,6.09504 163.36362,6.00579 C163.20507,5.91549 163.04127,5.80314 162.87642,5.67189 C162.70842,5.53854 162.57507,5.40519 162.47952,5.27499 C162.38397,5.14479 162.30207,4.98939 162.23697,4.81404 C162.17187,4.63764 162.13932,4.45074 162.13932,4.25859 C162.13932,3.73569 162.31362,3.32934 162.65802,3.05109 C162.99822,2.77599 163.40772,2.63634 163.87392,2.63634 C164.39997,2.63634 164.80737,2.75814 165.08562,2.99649 C165.36597,3.23799 165.50772,3.59079 165.50772,4.04544 C165.50772,4.46334 165.42057,4.84974 165.24837,5.19624 L168.66507,5.68134 C168.95067,5.17314 169.09557,4.61559 169.09557,4.02339 C169.09557,3.51834 168.98637,3.02484 168.77112,2.55654 C168.55587,2.08719 168.23562,1.65564 167.81877,1.27449 C167.40297,0.89229 166.84647,0.58149 166.16502,0.35049 C165.48252,0.11739 164.70342,-0.00021 163.85187,-0.00021 C162.10677,-0.00021 160.74072,0.41979 159.79047,1.24719 C158.84232,2.07144 158.36142,3.13719 158.36142,4.41399 C158.36142,6.37539 159.53112,7.84224 161.83692,8.77464 C162.00177,8.84184 162.25692,8.94369 162.60342,9.08124 C162.94992,9.21984 163.20717,9.32169 163.37517,9.38889 C163.54317,9.45609 163.77627,9.55794 164.06502,9.69129 C164.35692,9.82674 164.58162,9.94434 164.73282,10.04199 C164.88192,10.13859 165.05202,10.26039 165.25047,10.41369 C165.44892,10.56489 165.59802,10.71819 165.69462,10.86939 C165.78912,11.01639 165.87312,11.18964 165.94557,11.38284 C166.01907,11.57814 166.05582,11.79024 166.05582,12.01179 C166.05582,12.68064 165.86367,13.20144 165.48462,13.56159 C165.10662,13.92069 164.58687,14.10234 163.94112,14.10234 C163.25757,14.10234 162.70212,13.91544 162.28632,13.54584 C161.86947,13.17519 161.65842,12.64389 161.65842,11.96664 C161.65842,11.59179 161.77917,11.14659 162.01857,10.64469 L158.42547,10.39584 C158.19027,10.81269 158.07057,11.34819 158.07057,11.98974 C158.07057,13.49124 158.60502,14.67039 159.65922,15.49359" id="Fill-13" fill="#2B2B2B" mask="url(#mask-2)"></path>
                            <path d="M175.4004,7.97307 C175.6734,7.31157 176.17845,6.97557 176.9019,6.97557 C177.6222,6.97557 178.16715,7.30947 178.5231,7.96782 C178.87275,8.61462 179.0502,9.53442 179.0502,10.70097 C179.0502,11.86857 178.87275,12.78837 178.5231,13.43517 C178.16715,14.09352 177.6222,14.42637 176.9019,14.42637 C176.17845,14.42637 175.6734,14.09142 175.4004,13.42992 C175.13475,12.78417 174.9993,11.86647 174.9993,10.70097 C174.9993,9.53652 175.13475,8.61882 175.4004,7.97307 M176.30445,16.27752 C176.81475,16.58412 177.44055,16.73952 178.16505,16.73952 C179.4597,16.73952 180.51705,16.20507 181.30665,15.15192 C182.10045,14.09352 182.50365,12.59622 182.50365,10.70097 C182.50365,8.83617 182.1162,7.34622 181.35075,6.27207 C180.59055,5.20527 179.5332,4.66347 178.2102,4.66347 C177.5739,4.66347 176.97645,4.80102 176.4357,5.07087 C175.89495,5.34072 175.44765,5.73762 175.10325,6.24897 L174.9993,6.40437 L174.9993,5.07717 L171.71385,5.07717 L171.71385,21.00042 L174.9993,21.00042 L174.9993,14.96502 L175.1043,15.13302 C175.38885,15.58557 175.7931,15.97092 176.30445,16.27752" id="Fill-14" fill="#2B2B2B" mask="url(#mask-2)"></path>
                            <path d="M208.316745,14.3115 C208.525695,13.8663 208.631745,13.39275 208.631745,12.9045 C208.631745,12.57375 208.591845,12.27975 208.515195,12.02775 L205.273845,12.42675 C205.321095,12.5937 205.344195,12.7764 205.344195,12.9717 C205.344195,13.3959 205.192995,13.7487 204.895845,14.02065 C204.599745,14.2905 204.193395,14.427 203.690445,14.427 C202.888245,14.427 202.299195,14.10465 201.940095,13.4694 C201.586245,12.84465 201.406695,11.90595 201.406695,10.6785 C201.406695,10.00545 201.471795,9.4122 201.598845,8.9145 C201.726945,8.4126 201.906495,8.02095 202.130145,7.7511 C202.354845,7.48125 202.594245,7.2828 202.842045,7.161 C203.091945,7.03815 203.361795,6.9762 203.645295,6.9762 C204.119895,6.9762 204.510495,7.1148 204.807645,7.3878 C205.105845,7.6629 205.257045,8.0934 205.257045,8.66565 C205.257045,8.7465 205.237095,8.94495 205.197195,9.27255 L208.444845,9.5004 C208.509945,9.1938 208.542495,8.89035 208.542495,8.59845 C208.542495,7.4802 208.105695,6.53625 207.246795,5.79075 C206.384745,5.04315 205.210845,4.66305 203.757645,4.66305 C202.073445,4.66305 200.670645,5.2206 199.587045,6.3189 C198.503445,7.41615 197.954295,8.8914 197.954295,10.7016 C197.954295,12.5118 198.481395,13.98705 199.520895,15.08535 C200.559345,16.1826 201.913845,16.7391 203.544495,16.7391 C204.378195,16.7391 205.135245,16.62885 205.794645,16.4115 C206.451945,16.19625 206.989545,15.9012 207.393795,15.53475 C207.796995,15.16935 208.107795,14.75775 208.316745,14.3115" id="Fill-15" fill="#2B2B2B" mask="url(#mask-2)"></path>
                            <path d="M214.05132,9.18162 L214.05972,9.11757 C214.14267,8.46657 214.36422,7.94262 214.71702,7.55832 C215.07402,7.17192 215.52657,6.97557 216.06207,6.97557 C216.60597,6.97557 217.06377,7.17927 217.42287,7.58142 C217.78092,7.98042 217.97307,8.49912 217.99512,9.12282 L217.99722,9.18162 L214.05132,9.18162 Z M221.39502,10.63377 C221.39502,9.84627 221.28162,9.08817 221.05692,8.38152 C220.83222,7.67592 220.50252,7.03647 220.07622,6.48102 C219.65202,5.92767 219.08817,5.48142 218.40357,5.15592 C217.71687,4.82937 216.92832,4.66347 216.06207,4.66347 C214.46817,4.66347 213.12417,5.22312 212.06682,6.32772 C211.00842,7.43232 210.47187,8.90127 210.47187,10.69467 C210.47187,12.50697 210.99897,13.98432 212.03847,15.08367 C213.07797,16.18197 214.43037,16.73952 216.06207,16.73952 C216.89682,16.73952 217.65387,16.62927 218.31327,16.41192 C218.97057,16.19562 219.50922,15.90057 219.91242,15.53517 C220.31562,15.16872 220.62642,14.75712 220.83537,14.31192 C221.04432,13.86672 221.14932,13.39317 221.14932,12.90492 C221.14932,12.62982 221.11677,12.35787 221.05377,12.09432 L217.81032,12.45132 C217.84602,12.61512 217.86387,12.79047 217.86387,12.97107 C217.86387,13.39632 217.71267,13.74912 217.41447,14.02002 C217.11837,14.28987 216.71202,14.42637 216.20697,14.42637 C214.74537,14.42637 213.97782,13.38792 213.92532,11.34042 L213.92322,11.28162 L221.39502,11.28162 L221.39502,10.63377 Z" id="Fill-16" fill="#2B2B2B" mask="url(#mask-2)"></path>
                            <path d="M224.45787,15.65655 C225.30627,16.37475 226.54947,16.7391 228.15387,16.7391 C229.75827,16.7391 231.01302,16.401 231.88452,15.7332 C232.74972,15.0696 233.18967,14.1624 233.18967,13.0389 C233.18967,12.5811 233.09622,12.1716 232.91247,11.82405 C232.72977,11.4765 232.45782,11.1825 232.10502,10.95045 C231.74802,10.71525 231.37632,10.5231 231.00147,10.3803 C230.62452,10.23645 230.18037,10.09995 229.68057,9.97395 C229.32357,9.8847 229.03167,9.80595 228.81537,9.73875 C228.59907,9.67155 228.34077,9.58125 228.04467,9.4689 C227.74647,9.3555 227.50917,9.23895 227.33802,9.12135 C227.16582,9.0027 227.01567,8.85465 226.89282,8.68245 C226.76682,8.50605 226.70277,8.30865 226.70277,8.0955 C226.70277,7.74375 226.82772,7.46445 227.07237,7.2681 C227.31387,7.07385 227.62467,6.9762 227.99532,6.9762 C228.45627,6.9762 228.81852,7.08435 229.07157,7.29645 C229.32672,7.51275 229.45692,7.79625 229.45692,8.14065 C229.45692,8.3853 229.42542,8.6121 229.36347,8.8158 L232.56072,9.08565 C232.68147,8.6709 232.74237,8.2887 232.74237,7.9506 C232.74237,7.01925 232.31082,6.23175 231.46032,5.6091 C230.60352,4.9812 229.43802,4.66305 227.99532,4.66305 C226.61877,4.66305 225.49842,4.97175 224.66472,5.58075 C223.83732,6.18555 223.41732,7.08435 223.41732,8.25195 C223.41732,8.6877 223.51917,9.09825 223.71867,9.47205 C223.91817,9.8469 224.19222,10.1703 224.53242,10.4328 C224.87577,10.6974 225.24327,10.9221 225.62442,11.1027 C226.00557,11.28225 226.41507,11.4303 226.84242,11.54055 C227.47977,11.71275 227.99532,11.8755 228.37542,12.02355 C228.76182,12.17475 229.08627,12.3648 229.34142,12.5874 C229.60392,12.81735 229.73622,13.08615 229.73622,13.3854 C229.73622,13.70145 229.60602,13.95765 229.34877,14.14665 C229.09572,14.3325 228.75132,14.427 228.32187,14.427 C227.71182,14.427 227.24562,14.2947 226.93692,14.03325 C226.62612,13.7697 226.46862,13.4127 226.46862,12.9717 C226.46862,12.74595 226.50747,12.4929 226.58622,12.21675 L223.32072,11.8818 C223.22937,12.2115 223.18317,12.55485 223.18317,12.9045 C223.18317,14.01435 223.61157,14.94045 224.45787,15.65655" id="Fill-17" fill="#2B2B2B" mask="url(#mask-2)"></path>
                            <path d="M191.688,12.583515 C191.1861,13.520115 189.9891,14.489265 188.85615,14.489265 C188.1453,14.489265 187.68645,14.043015 187.68645,13.353165 C187.68645,11.832765 189.7266,11.237415 191.6355,11.187015 L191.6943,11.184915 L191.688,12.583515 Z M196.4592,14.533365 C196.4529,14.533365 196.4466,14.533365 196.44135,14.533365 C195.59295,14.533365 195.1425,14.047215 195.1026,13.086465 L195.1026,9.424065 C195.1026,7.860615 194.6679,6.668865 193.8111,5.882415 C192.95325,5.094915 191.70795,4.694865 190.1109,4.694865 C188.6976,4.694865 187.23075,5.155815 186.2805,5.898165 C185.3313,6.639465 184.8504,7.537215 184.8504,8.565165 C184.8504,8.894865 184.89975,9.252915 184.9953,9.629865 L188.1684,9.143715 C188.14635,9.032415 188.13585,8.902215 188.13585,8.755215 C188.13585,8.179815 188.4498,7.683165 188.71965,7.433265 C189.05775,7.119315 189.64365,7.006965 190.0437,7.006965 C191.10945,7.006965 191.6502,7.806015 191.6502,9.379965 L191.67015,9.580515 L191.6103,9.583665 C186.72255,9.817815 184.24455,11.252115 184.24455,13.845615 C184.24455,16.365615 186.26265,16.741515 187.46595,16.741515 C189.27615,16.741515 190.9845,15.595965 191.8182,13.821465 L191.9022,13.640865 L191.92635,13.839315 C192.1857,15.990765 193.8384,16.757265 195.29895,16.757265 C196.1106,16.757265 197.08185,16.527315 197.8473,16.155615 L197.1585,14.263515 C196.9695,14.436765 196.7238,14.531265 196.4592,14.533365 Z" id="Fill-18" fill="#2B2B2B" mask="url(#mask-2)"></path>
                        </g>
                    </g>
                </g>
            </g>
        </g>
    </g>
</svg>