<?xml version="1.0" encoding="UTF-8"?>
<svg width="296px" height="129px" viewBox="0 0 296 129" version="1.1" xmlns="http://www.w3.org/2000/svg" xmlns:xlink="http://www.w3.org/1999/xlink">
    <!-- Generator: Sketch 49.3 (51167) - http://www.bohemiancoding.com/sketch -->
    <title>Run Mobile</title>
    <desc>Created with Sketch.</desc>
    <defs></defs>
    <g id="Run-Mobile" stroke="none" stroke-width="1" fill="none" fill-rule="evenodd">
        <rect id="Rectangle-11" x="0" y="0" width="296" height="129"></rect>
        <path d="M11.1953125,29.0917969 C11.1953125,28.0371041 11.3945293,27.1699253 11.7929688,26.4902344 L17.6289062,26.8945312 C17.2187479,27.7265667 17.0136719,28.4472626 17.0136719,29.0566406 C17.0136719,30.0996146 17.3330046,30.9052706 17.9716797,31.4736328 C18.6103548,32.041995 19.457026,32.3261719 20.5117188,32.3261719 C21.5078175,32.3261719 22.2958955,32.050784 22.8759766,31.5 C23.4560576,30.949216 23.7460938,30.1582083 23.7460938,29.1269531 C23.7460938,28.7871077 23.6904302,28.4677749 23.5791016,28.1689453 C23.4677729,27.8701157 23.3388679,27.6064465 23.1923828,27.3779297 C23.0458977,27.1494129 22.820314,26.9179699 22.515625,26.6835938 C22.210936,26.4492176 21.9414074,26.2558601 21.7070312,26.1035156 C21.4726551,25.9511711 21.1269554,25.7695323 20.6699219,25.5585937 C20.2128883,25.3476552 19.8525404,25.1894537 19.5888672,25.0839844 C19.325194,24.9785151 18.9209012,24.8173839 18.3759766,24.6005859 C17.831052,24.383788 17.4296888,24.2226568 17.171875,24.1171875 C13.4921691,22.6288988 11.6523438,20.3144688 11.6523438,17.1738281 C11.6523438,15.1347554 12.4111252,13.4560613 13.9287109,12.1376953 C15.4462967,10.8193293 17.5937361,10.1601562 20.3710938,10.1601562 C21.7304755,10.1601562 22.9550727,10.3447247 24.0449219,10.7138672 C25.1347711,11.0830097 26.0136685,11.5722626 26.6816406,12.1816406 C27.3496127,12.7910187 27.8564436,13.4706994 28.2021484,14.2207031 C28.5478533,14.9707069 28.7207031,15.749996 28.7207031,16.5585938 C28.7207031,17.5312549 28.4804712,18.4335896 28,19.265625 L22.4277344,18.4746094 C22.7324234,17.9121066 22.8847656,17.2851597 22.8847656,16.59375 C22.8847656,15.9023403 22.6738302,15.3750018 22.2519531,15.0117188 C21.830076,14.6484357 21.2148478,14.4667969 20.40625,14.4667969 C19.6914027,14.4667969 19.0732448,14.6777323 18.5517578,15.0996094 C18.0302708,15.5214865 17.7695312,16.1308554 17.7695312,16.9277344 C17.7695312,17.2207046 17.8193354,17.5019518 17.9189453,17.7714844 C18.0185552,18.041017 18.1416008,18.2753896 18.2880859,18.4746094 C18.434571,18.6738291 18.6367175,18.8759755 18.8945312,19.0810547 C19.152345,19.2861338 19.4042956,19.4589837 19.6503906,19.5996094 C19.8964856,19.7402351 20.2070294,19.895507 20.5820312,20.0654297 C20.9570331,20.2353524 21.2880845,20.3789057 21.5751953,20.4960938 C21.8623061,20.6132818 22.2226541,20.7597647 22.65625,20.9355469 C23.0898459,21.111329 23.4531235,21.2636712 23.7460938,21.3925781 C24.4843787,21.708986 25.1113255,22.0048814 25.6269531,22.2802734 C26.1425807,22.5556654 26.6669895,22.9072244 27.2001953,23.3349609 C27.7334011,23.7626975 28.1611312,24.2167945 28.4833984,24.6972656 C28.8056657,25.1777368 29.0693349,25.7665981 29.2744141,26.4638672 C29.4794932,27.1611363 29.5820312,27.9374957 29.5820312,28.7929687 C29.5820312,30.0468813 29.3388696,31.180659 28.8525391,32.1943359 C28.3662085,33.2080129 27.7041058,34.0341765 26.8662109,34.6728516 C26.0283161,35.3115266 25.0673882,35.8007796 23.9833984,36.140625 C22.8994086,36.4804704 21.7421937,36.6503906 20.5117188,36.6503906 C17.6757671,36.6503906 15.4140709,35.9912175 13.7265625,34.6728516 C12.0390541,33.3544856 11.1953125,31.4941526 11.1953125,29.0917969 Z M30.8458915,18.140625 L36.3478446,18.140625 L39.2306571,29.7773438 L42.6056571,18.140625 L47.0001884,18.140625 L50.3927665,29.7773438 L53.275579,18.140625 L58.7775321,18.140625 L53.2052665,36 L47.8615165,36 L44.8029227,24.8730469 L41.744329,36 L36.4181571,36 L30.8458915,18.140625 Z M59.6195173,27.0703125 C59.6195173,24.2109232 60.4632589,21.8994229 62.1507673,20.1357422 C63.8382758,18.3720615 65.953489,17.4902344 68.4964705,17.4902344 C69.8792899,17.4902344 71.1185353,17.750974 72.2142439,18.2724609 C73.3099525,18.7939479 74.1976389,19.4970659 74.8773298,20.3818359 C75.5570207,21.266606 76.0755702,22.2714787 76.4329939,23.3964844 C76.7904176,24.52149 76.9691267,25.7109312 76.9691267,26.9648438 L76.9691267,28.0722656 L65.2269392,28.0722656 C65.3089709,31.2480628 66.4749748,32.8359375 68.7249861,32.8359375 C69.4984274,32.8359375 70.110726,32.6308614 70.5619001,32.2207031 C71.0130743,31.8105448 71.238658,31.2832063 71.238658,30.6386719 C71.238658,30.322264 71.2035021,30.0234389 71.1331892,29.7421875 L76.5296736,29.1621094 C76.6468617,29.6074241 76.7054548,30.0644508 76.7054548,30.5332031 C76.7054548,31.3183633 76.5355347,32.0683558 76.1956892,32.7832031 C75.8558438,33.4980504 75.3578019,34.1484346 74.7015486,34.734375 C74.0452953,35.3203154 73.1839758,35.7861311 72.1175642,36.1318359 C71.0511526,36.4775408 69.8441334,36.6503906 68.4964705,36.6503906 C65.8948949,36.6503906 63.7650334,35.7744228 62.106822,34.0224609 C60.4486106,32.2704991 59.6195173,29.9531394 59.6195173,27.0703125 Z M65.4378767,24.6269531 L71.4495955,24.6269531 C71.414439,23.654292 71.1214732,22.857425 70.5706892,22.2363281 C70.0199052,21.6152313 69.3285059,21.3046875 68.4964705,21.3046875 C67.6761538,21.3046875 66.9935435,21.6035126 66.4486189,22.2011719 C65.9036943,22.7988311 65.5667836,23.6074168 65.4378767,24.6269531 Z M79.3931432,31.5351562 C79.3931432,29.4843647 80.2749703,27.8818417 82.038651,26.7275391 C83.8023317,25.5732364 86.5649994,24.9785158 90.3267369,24.9433594 C90.3267369,22.517566 89.5122919,21.3046875 87.8833776,21.3046875 C87.180249,21.3046875 86.5913877,21.5244119 86.116776,21.9638672 C85.6421642,22.4033225 85.4048619,23.0273397 85.4048619,23.8359375 C85.4048619,24.1054701 85.4282992,24.3339834 85.4751744,24.5214844 L80.4302526,25.3125 C80.2661892,24.6796843 80.1841588,24.0878934 80.1841588,23.5371094 C80.1841588,21.8847574 80.9341513,20.4638731 82.4341588,19.2744141 C83.9341663,18.084955 85.7857103,17.4902344 87.9888463,17.4902344 C90.5435466,17.4902344 92.5093472,18.1201109 93.8863072,19.3798828 C95.2632672,20.6396547 95.9517369,22.5175656 95.9517369,25.0136719 L95.9517369,31.5 C95.9517369,32.4609423 96.3443111,32.9414062 97.1294713,32.9414062 C97.7154117,32.9414062 98.2837654,32.7363302 98.8345494,32.3261719 L98.8345494,35.8242188 C98.2368902,36.1289078 97.6597475,36.3427728 97.1031041,36.4658203 C96.5464607,36.5888678 95.8638503,36.6503906 95.0552526,36.6503906 C93.9419657,36.6503906 93.0103344,36.407229 92.2603307,35.9208984 C91.5103269,35.4345679 90.9888478,34.7636762 90.6958776,33.9082031 C89.992749,34.833989 89.2076006,35.5224587 88.3404088,35.9736328 C87.473217,36.4248069 86.4068214,36.6503906 85.1411901,36.6503906 C83.3364935,36.6503906 81.9273279,36.1787157 80.913651,35.2353516 C79.899974,34.2919875 79.3931432,33.0586014 79.3931432,31.5351562 Z M85.2115026,30.9902344 C85.2115026,31.564456 85.3784931,32.0156234 85.7124791,32.34375 C86.0464652,32.6718766 86.4712656,32.8359375 86.9868932,32.8359375 C88.0064295,32.8359375 88.8179448,32.3935591 89.4214635,31.5087891 C90.0249821,30.624019 90.3267369,29.5898497 90.3267369,28.40625 L90.3267369,27.6152344 C88.4282899,27.8496105 87.1011548,28.256833 86.3452916,28.8369141 C85.5894285,29.4169951 85.2115026,30.1347613 85.2115026,30.9902344 Z M98.5339565,21.9550781 L98.5339565,18.140625 L101.522238,18.140625 L101.522238,12.6035156 L106.84841,10.7929688 L106.84841,18.140625 L110.627707,18.140625 L110.627707,21.9550781 L106.84841,21.9550781 L106.84841,30.6738281 C106.84841,31.4238319 107.027119,31.971678 107.384542,32.3173828 C107.741966,32.6630877 108.30739,32.8359375 109.080832,32.8359375 C109.819116,32.8359375 110.528094,32.5957055 111.207785,32.1152344 L111.207785,35.1738281 C109.965591,36.158208 108.43045,36.6503906 106.602316,36.6503906 C104.996839,36.6503906 103.748805,36.1904343 102.858175,35.2705078 C101.967546,34.3505813 101.522238,33.093758 101.522238,31.5 L101.522238,21.9550781 L98.5339565,21.9550781 Z M121.153474,10.7929688 L127.270661,10.7929688 L130.46988,26.8945312 L130.768708,29.8828125 L130.909333,29.8828125 L131.190583,26.8945312 L134.389802,10.7929688 L140.524568,10.7929688 L143.723786,26.8945312 L144.005036,29.8828125 L144.145661,29.8828125 L144.444489,26.8945312 L147.643708,10.7929688 L153.760896,10.7929688 L147.714021,36 L140.665193,36 L137.465974,20.7773438 L134.249177,36 L127.200349,36 L121.153474,10.7929688 Z M156.325537,36 L156.325537,10.7929688 L161.669287,10.7929688 L161.669287,21.09375 C162.278665,19.9335879 163.09311,19.0429719 164.112647,18.421875 C165.132183,17.8007781 166.257172,17.4902344 167.487647,17.4902344 C169.374375,17.4902344 170.748384,18.0527287 171.609717,19.1777344 C172.471049,20.30274 172.901709,21.9726452 172.901709,24.1875 L172.901709,36 L167.557959,36 L167.557959,24.6621094 C167.557959,23.5722602 167.347024,22.7402372 166.925147,22.1660156 C166.503269,21.591794 165.888041,21.3046875 165.079443,21.3046875 C164.048188,21.3046875 163.222025,21.7294879 162.600928,22.5791016 C161.979831,23.4287152 161.669287,24.4218693 161.669287,25.5585937 L161.669287,36 L156.325537,36 Z M176.362835,16.4179688 L176.362835,10.7929688 L182.40971,10.7929688 L182.40971,16.4179688 L176.362835,16.4179688 Z M176.714397,36 L176.714397,18.140625 L182.058147,18.140625 L182.058147,36 L176.714397,36 Z M185.730211,36 L185.730211,10.7929688 L191.073961,10.7929688 L191.073961,36 L185.730211,36 Z M193.93743,27.0703125 C193.93743,24.2109232 194.781172,21.8994229 196.46868,20.1357422 C198.156189,18.3720615 200.271402,17.4902344 202.814384,17.4902344 C204.197203,17.4902344 205.436448,17.750974 206.532157,18.2724609 C207.627866,18.7939479 208.515552,19.4970659 209.195243,20.3818359 C209.874934,21.266606 210.393483,22.2714787 210.750907,23.3964844 C211.108331,24.52149 211.28704,25.7109312 211.28704,26.9648438 L211.28704,28.0722656 L199.544852,28.0722656 C199.626884,31.2480628 200.792888,32.8359375 203.042899,32.8359375 C203.81634,32.8359375 204.428639,32.6308614 204.879813,32.2207031 C205.330987,31.8105448 205.556571,31.2832063 205.556571,30.6386719 C205.556571,30.322264 205.521415,30.0234389 205.451102,29.7421875 L210.847587,29.1621094 C210.964775,29.6074241 211.023368,30.0644508 211.023368,30.5332031 C211.023368,31.3183633 210.853448,32.0683558 210.513602,32.7832031 C210.173757,33.4980504 209.675715,34.1484346 209.019462,34.734375 C208.363208,35.3203154 207.501889,35.7861311 206.435477,36.1318359 C205.369066,36.4775408 204.162046,36.6503906 202.814384,36.6503906 C200.212808,36.6503906 198.082946,35.7744228 196.424735,34.0224609 C194.766524,32.2704991 193.93743,29.9531394 193.93743,27.0703125 Z M199.75579,24.6269531 L205.767509,24.6269531 C205.732352,23.654292 205.439386,22.857425 204.888602,22.2363281 C204.337818,21.6152313 203.646419,21.3046875 202.814384,21.3046875 C201.994067,21.3046875 201.311457,21.6035126 200.766532,22.2011719 C200.221607,22.7988311 199.884697,23.6074168 199.75579,24.6269531 Z M10.3515625,51.7929688 L16.5566406,51.7929688 L19.8261719,59.4394531 L20.4765625,62.3046875 L20.6171875,62.3046875 L21.2675781,59.4394531 L24.5371094,51.7929688 L30.7421875,51.7929688 L23.4648438,67.859375 L23.4648438,77 L17.6289062,77 L17.6289062,67.859375 L10.3515625,51.7929688 Z M30.6701102,75.0488281 C29.0646334,73.3144445 28.2619071,70.9882958 28.2619071,68.0703125 C28.2619071,65.1523292 29.0675631,62.8261805 30.6788993,61.0917969 C32.2902355,59.3574132 34.4435342,58.4902344 37.1388602,58.4902344 C39.8341862,58.4902344 41.9904146,59.3574132 43.6076102,61.0917969 C45.2248058,62.8261805 46.0333915,65.1523292 46.0333915,68.0703125 C46.0333915,70.9882958 45.2248058,73.3144445 43.6076102,75.0488281 C41.9904146,76.7832118 39.8341862,77.6503906 37.1388602,77.6503906 C34.4435342,77.6503906 32.2873058,76.7832118 30.6701102,75.0488281 Z M34.6779227,63.8164062 C34.1388575,64.8242238 33.869329,66.2421784 33.869329,68.0703125 C33.869329,69.8984466 34.1388575,71.3164012 34.6779227,72.3242188 C35.2169879,73.3320363 36.0372922,73.8359375 37.1388602,73.8359375 C38.2404282,73.8359375 39.0636622,73.3320363 39.6085868,72.3242188 C40.1535114,71.3164012 40.4259696,69.8984466 40.4259696,68.0703125 C40.4259696,66.2421784 40.1535114,64.8242238 39.6085868,63.8164062 C39.0636622,62.8085887 38.2404282,62.3046875 37.1388602,62.3046875 C36.0372922,62.3046875 35.2169879,62.8085887 34.6779227,63.8164062 Z M48.9847517,70.8125 L48.9847517,59.140625 L54.3109236,59.140625 L54.3109236,70.5839844 C54.3109236,72.751964 55.1136499,73.8359375 56.7191267,73.8359375 C57.5511621,73.8359375 58.2689284,73.4960971 58.872447,72.8164062 C59.4759657,72.1367154 59.7777205,71.2753958 59.7777205,70.2324219 L59.7777205,59.140625 L65.1038923,59.140625 L65.1038923,77 L59.7777205,77 L59.7777205,74.046875 C59.1683424,75.2304747 58.383194,76.1269501 57.4222517,76.7363281 C56.4613094,77.3457062 55.3773359,77.6503906 54.1702986,77.6503906 C52.3890397,77.6503906 51.0794825,77.0498107 50.2415876,75.8486328 C49.4036928,74.6474549 48.9847517,72.9687608 48.9847517,70.8125 Z" id="Sweat-While-You" fill="#75968A"></path>
        <g id="Group" transform="translate(77.000000, 55.000000)" stroke="#75968A" stroke-linecap="round" stroke-width="2">
            <path d="M89,9.5 L0,9.5" id="Stroke-1"></path>
            <path d="M89,1.5 L11,1.5" id="Stroke-3"></path>
            <path d="M88.5314883,17.5 L25,17.5" id="Stroke-5"></path>
        </g>
        <path d="M178.021484,77 L178.021484,51.7929688 L187.742188,51.7929688 C190.296888,51.7929688 192.327141,52.4433529 193.833008,53.7441406 C195.338875,55.0449284 196.091797,56.7265522 196.091797,58.7890625 C196.091797,59.6914108 195.945314,60.5263633 195.652344,61.2939453 C195.359374,62.0615273 194.955081,62.6796852 194.439453,63.1484375 C194.07617,63.5000018 193.65137,63.7841786 193.165039,64.0009766 C192.678709,64.2177745 192.224611,64.3261719 191.802734,64.3261719 L191.802734,64.6074219 C192.810552,64.7714852 193.60156,65.1582001 194.175781,65.7675781 C194.632815,66.2597681 194.946288,66.8456997 195.116211,67.5253906 C195.286134,68.2050815 195.382812,69.0956976 195.40625,70.1972656 C195.417969,71.6738355 195.502929,72.8691361 195.661133,73.7832031 C195.819337,74.6972702 196.115232,75.7695251 196.548828,77 L190.255859,77 C190.009764,76.5546853 189.836915,76.0566434 189.737305,75.5058594 C189.637695,74.9550754 189.582031,74.0878965 189.570312,72.9042969 C189.546875,71.673822 189.494141,70.6543009 189.412109,69.8457031 C189.330078,69.0371053 189.204102,68.3398467 189.03418,67.7539062 C188.864257,67.1679658 188.626955,66.7226578 188.322266,66.4179688 C188.017577,66.1132797 187.657229,65.8935554 187.241211,65.7587891 C186.825193,65.6240228 186.306644,65.5566406 185.685547,65.5566406 L183.839844,65.5566406 L183.839844,77 L178.021484,77 Z M183.839844,61.2324219 L187.021484,61.2324219 C188.076177,61.2324219 188.878903,61.0156272 189.429688,60.5820312 C189.980472,60.1484353 190.255859,59.5156292 190.255859,58.6835938 C190.255859,57.8515583 189.980472,57.2158225 189.429688,56.7763672 C188.878903,56.3369119 188.076177,56.1171875 187.021484,56.1171875 L183.839844,56.1171875 L183.839844,61.2324219 Z M199.552923,70.8125 L199.552923,59.140625 L204.879095,59.140625 L204.879095,70.5839844 C204.879095,72.751964 205.681821,73.8359375 207.287298,73.8359375 C208.119333,73.8359375 208.837099,73.4960971 209.440618,72.8164062 C210.044137,72.1367154 210.345891,71.2753958 210.345891,70.2324219 L210.345891,59.140625 L215.672063,59.140625 L215.672063,77 L210.345891,77 L210.345891,74.046875 C209.736513,75.2304747 208.951365,76.1269501 207.990423,76.7363281 C207.02948,77.3457062 205.945507,77.6503906 204.73847,77.6503906 C202.957211,77.6503906 201.647653,77.0498107 200.809759,75.8486328 C199.971864,74.6474549 199.552923,72.9687608 199.552923,70.8125 Z M219.379283,77 L219.379283,59.140625 L224.723033,59.140625 L224.723033,62.09375 C225.332411,60.9101503 226.117559,60.0136749 227.078502,59.4042969 C228.039444,58.7949188 229.123417,58.4902344 230.330455,58.4902344 C232.123432,58.4902344 233.435919,59.0410101 234.267955,60.1425781 C235.09999,61.2441461 235.516002,62.7499904 235.516002,64.6601562 L235.516002,77 L230.18983,77 L230.18983,65.5566406 C230.18983,63.388661 229.387103,62.3046875 227.781627,62.3046875 C226.949591,62.3046875 226.231825,62.6445279 225.628306,63.3242188 C225.024788,64.0039096 224.723033,64.8652292 224.723033,65.9082031 L224.723033,77 L219.379283,77 Z M238.871659,77 L238.871659,70.7773438 L244.918534,70.7773438 L244.918534,77 L238.871659,77 Z" id="Run." fill="#75968A"></path>
    </g>
</svg>